<svg class="animated" id="freepik_stories-cross-country-race" xmlns="http://www.w3.org/2000/svg" viewBox="0 0 500 500" version="1.1" xmlns:xlink="http://www.w3.org/1999/xlink" xmlns:svgjs="http://svgjs.com/svgjs">
  <style>
    svg#freepik_stories-cross-country-race:not(.animated) .animable {
      opacity: 0;
    }

    svg#freepik_stories-cross-country-race.animated #freepik--Trees--inject-54 {
      animation: 1s 1 forwards cubic-bezier(.36, -0.01, .5, 1.38) slideUp;
      animation-delay: 0s;
    }

    svg#freepik_stories-cross-country-race.animated #freepik--Bushes--inject-54 {
      animation: 1s 1 forwards cubic-bezier(.36, -0.01, .5, 1.38) slideDown;
      animation-delay: 0s;
    }

    svg#freepik_stories-cross-country-race.animated #freepik--Floor--inject-54 {
      animation: 1s 1 forwards cubic-bezier(.36, -0.01, .5, 1.38) lightSpeedRight;
      animation-delay: 0s;
    }

    svg#freepik_stories-cross-country-race.animated #freepik--Shadows--inject-54 {
      animation: 1s 1 forwards cubic-bezier(.36, -0.01, .5, 1.38) zoomOut;
      animation-delay: 0s;
    }

    svg#freepik_stories-cross-country-race.animated #freepik--Rocks--inject-54 {
      animation: 1s 1 forwards cubic-bezier(.36, -0.01, .5, 1.38) lightSpeedLeft;
      animation-delay: 0s;
    }

    svg#freepik_stories-cross-country-race.animated #freepik--Clouds--inject-54 {
      animation: 1s 1 forwards cubic-bezier(.36, -0.01, .5, 1.38) lightSpeedLeft, 1.5s Infinite linear wind;
      animation-delay: 0s, 1s;
    }

    svg#freepik_stories-cross-country-race.animated #freepik--Sun--inject-54 {
      animation: 1s 1 forwards cubic-bezier(.36, -0.01, .5, 1.38) slideDown;
      animation-delay: 0s;
    }

    svg#freepik_stories-cross-country-race.animated #freepik--character-2--inject-54 {
      animation: 1s 1 forwards cubic-bezier(.36, -0.01, .5, 1.38) slideLeft, 1.5s Infinite linear floating;
      animation-delay: 0s, 1s;
    }

    svg#freepik_stories-cross-country-race.animated #freepik--character-1--inject-54 {
      animation: 1s 1 forwards cubic-bezier(.36, -0.01, .5, 1.38) slideDown, 1.5s Infinite linear floating;
      animation-delay: 0s, 1s;
    }

    @keyframes slideUp {
      0% {
        opacity: 0;
        transform: translateY(30px);
      }

      100% {
        opacity: 1;
        transform: inherit;
      }
    }

    @keyframes slideDown {
      0% {
        opacity: 0;
        transform: translateY(-30px);
      }

      100% {
        opacity: 1;
        transform: translateY(0);
      }
    }

    @keyframes lightSpeedRight {
      from {
        transform: translate3d(50%, 0, 0) skewX(-20deg);
        opacity: 0;
      }

      60% {
        transform: skewX(10deg);
        opacity: 1;
      }

      80% {
        transform: skewX(-2deg);
      }

      to {
        opacity: 1;
        transform: translate3d(0, 0, 0);
      }
    }

    @keyframes zoomOut {
      0% {
        opacity: 0;
        transform: scale(1.5);
      }

      100% {
        opacity: 1;
        transform: scale(1);
      }
    }

    @keyframes lightSpeedLeft {
      from {
        transform: translate3d(-50%, 0, 0) skewX(20deg);
        opacity: 0;
      }

      60% {
        transform: skewX(-10deg);
        opacity: 1;
      }

      80% {
        transform: skewX(2deg);
      }

      to {
        opacity: 1;
        transform: translate3d(0, 0, 0);
      }
    }

    @keyframes wind {
      0% {
        transform: rotate(0deg);
      }

      25% {
        transform: rotate(1deg);
      }

      75% {
        transform: rotate(-1deg);
      }
    }

    @keyframes slideLeft {
      0% {
        opacity: 0;
        transform: translateX(-30px);
      }

      100% {
        opacity: 1;
        transform: translateX(0);
      }
    }

    @keyframes floating {
      0% {
        opacity: 1;
        transform: translateY(0px);
      }

      50% {
        transform: translateY(-10px);
      }

      100% {
        opacity: 1;
        transform: translateY(0px);
      }
    }
  </style>
  <g id="freepik--Trees--inject-54" class="animable animator-active" style="transform-origin: 248.426px 142.832px;">
    <g id="freepik--Pines--inject-54" class="animable" style="transform-origin: 248.426px 142.832px;">
      <g id="freepik--Pine--inject-54" class="animable" style="transform-origin: 35.1298px 180.562px;">
        <path d="M59.41,216.34c-7.34,5.42-41,4.68-48.56,0-.67-2.93-.33-9.46.72-18l9,4.85-8.17-11.44c1.19-8.32,2.86-17.93,4.81-27.77l5.58,3.12-4.77-7.17c.38-1.85.76-3.69,1.15-5.54l6.37,3.13-5.47-7.32c1.62-7.43,3.35-14.72,5.09-21.41l5.08,1.48s-1.91-2.86-3.93-5.83c1.78-6.59,3.56-12.44,5.24-17.07a3.78,3.78,0,0,1,7.11,0c2.25,6.23,4.69,14.7,7.1,24.18l-4.5,7.56,5.22-4.62c1.09,4.38,2.16,9,3.18,13.58l-7.21,12.89,8.69-6.07c1.44,6.8,2.77,13.63,3.95,20.18l-7,7,7.82-2.51c.15.8.28,1.58.41,2.35l-7.22,9.74,8.07-4.42C59.32,201.12,60.34,212.26,59.41,216.34Z" style="fill: #008CFF; transform-origin: 35.1298px 162.504px;" id="elu9sgg7e1m8" class="animable"></path>
        <g id="elkiuogmr73rn">
          <path d="M59.41,216.34c-7.34,5.42-41,4.68-48.56,0-.67-2.93-.33-9.46.72-18l9,4.85-8.17-11.44c1.19-8.32,2.86-17.93,4.81-27.77l5.58,3.12-4.77-7.17c.38-1.85.76-3.69,1.15-5.54l6.37,3.13-5.47-7.32c1.62-7.43,3.35-14.72,5.09-21.41l5.08,1.48s-1.91-2.86-3.93-5.83c1.78-6.59,3.56-12.44,5.24-17.07a3.78,3.78,0,0,1,7.11,0c2.25,6.23,4.69,14.7,7.1,24.18l-4.5,7.56,5.22-4.62c1.09,4.38,2.16,9,3.18,13.58l-7.21,12.89,8.69-6.07c1.44,6.8,2.77,13.63,3.95,20.18l-7,7,7.82-2.51c.15.8.28,1.58.41,2.35l-7.22,9.74,8.07-4.42C59.32,201.12,60.34,212.26,59.41,216.34Z" style="fill: rgb(255, 255, 255); opacity: 0.25; transform-origin: 35.1298px 162.504px;" class="animable" id="el1c65ytk97df"></path>
        </g>
        <path d="M36.91,185.1l10.25-19.29L36.74,178.58l-1.61-59.85-1.25,36.42-7.3-10.54,7.07,17.12-1.26,36.88L18.48,185.8,32.2,204,31,254.63c0,2.16,7.29,2.16,7.29,0L36.91,185.1Z" style="fill: rgb(69, 90, 100); transform-origin: 32.82px 187.49px;" id="el98kfj1gjs8a" class="animable"></path>
      </g>
      <g id="freepik--pine--inject-54" class="animable" style="transform-origin: 81.4509px 136.923px;">
        <path d="M112.58,177.06c-9.41,6.94-52.53,6-62.26,0-.67-2.93-.55-8.67.17-16.28l11.2,4.05-10.41-11.2c1.18-9.78,3.06-21.61,5.37-34.1L63,122.16l-5.51-7c.23-1.23.48-2.46.72-3.69l15,7.66-13-17.74c2-9.73,4.21-19.48,6.45-28.62L76.45,81,68,67.58c.62-2.45,1.25-4.84,1.86-7.15l8.66,4.7-7.09-10.4c1.87-6.64,3.73-12.57,5.49-17.44a4.85,4.85,0,0,1,9.11,0c2.63,7.3,5.47,17,8.3,27.84-2.46,5.71-4.41,10.18-4.41,10.18l6.24-2.89c.69,2.77,1.36,5.61,2,8.48-3,9.06-6.65,20.43-6.65,20.66.19-.35,4.55-8.16,8.07-14.44C108.09,124.84,114.85,167.13,112.58,177.06Z" style="fill: #008CFF; transform-origin: 81.4509px 108.012px;" id="elb1qdau131tk" class="animable"></path>
        <g id="eltthvxjyxem">
          <path d="M112.58,177.06c-9.41,6.94-52.53,6-62.26,0-.67-2.93-.55-8.67.17-16.28l11.2,4.05-10.41-11.2c1.18-9.78,3.06-21.61,5.37-34.1L63,122.16l-5.51-7c.23-1.23.48-2.46.72-3.69l15,7.66-13-17.74c2-9.73,4.21-19.48,6.45-28.62L76.45,81,68,67.58c.62-2.45,1.25-4.84,1.86-7.15l8.66,4.7-7.09-10.4c1.87-6.64,3.73-12.57,5.49-17.44a4.85,4.85,0,0,1,9.11,0c2.63,7.3,5.47,17,8.3,27.84-2.46,5.71-4.41,10.18-4.41,10.18l6.24-2.89c.69,2.77,1.36,5.61,2,8.48-3,9.06-6.65,20.43-6.65,20.66.19-.35,4.55-8.16,8.07-14.44C108.09,124.84,114.85,167.13,112.58,177.06Z" style="fill: rgb(255, 255, 255); opacity: 0.45; transform-origin: 81.4509px 108.012px;" class="animable" id="elimx8q5rhjmj"></path>
        </g>
        <path d="M83.74,137l13.13-24.72L83.52,128.64,81.46,51.92,79.85,98.61,70.5,85.1,79.56,107l-1.62,47.28L60.12,137.9,77.7,161.2l-1.49,76.47c0,2.76,9.34,2.76,9.34,0L83.74,137Z" style="fill: rgb(69, 90, 100); transform-origin: 78.495px 145.83px;" id="eljvr9ntm5ch" class="animable"></path>
      </g>
      <g id="freepik--pine--inject-54" class="animable" style="transform-origin: 414.982px 119.37px;">
        <path d="M443.69,157c-8.68,6.21-48.45,5.35-57.42,0-.48-2.08-.52-5.76-.17-10.62l13.56,6-13-12.44c.77-7,2-15.47,3.66-24.66l4.95,2.58-4.52-5.05c.93-5.19,2-10.57,3.09-16l8.08,6.29-7.21-10.46c.23-1.13.47-2.27.71-3.4l11.05,8.83-9.36-16.51c1.73-7.63,3.55-15.13,5.37-22.14l7.21,5.31c-.17-.3-3.05-5-5.94-10,2.38-8.75,4.77-16.5,7-22.47a4.53,4.53,0,0,1,8.41,0c2.12,5.69,4.39,13,6.66,21.2h0l-4.4,9.36,5.25-6.22c1.42,5.26,2.82,10.86,4.19,16.59l-9.44,20.13,11.15-12.77c.17.78.36,1.58.53,2.38l-4.54,10.39,5.28-7.07c1.92,8.77,3.68,17.59,5.2,25.92L426,127.46l14.17-9.15c.32,1.92.63,3.82.93,5.66l-6.64,7.11,7.42-2.07C443.82,142.41,444.66,152.86,443.69,157Z" style="fill: #008CFF; transform-origin: 414.982px 95.3779px;" id="elojo6hc707r" class="animable"></path>
        <g id="eljs65qjz52p">
          <path d="M443.69,157c-8.68,6.21-48.45,5.35-57.42,0-.48-2.08-.52-5.76-.17-10.62l13.56,6-13-12.44c.77-7,2-15.47,3.66-24.66l4.95,2.58-4.52-5.05c.93-5.19,2-10.57,3.09-16l8.08,6.29-7.21-10.46c.23-1.13.47-2.27.71-3.4l11.05,8.83-9.36-16.51c1.73-7.63,3.55-15.13,5.37-22.14l7.21,5.31c-.17-.3-3.05-5-5.94-10,2.38-8.75,4.77-16.5,7-22.47a4.53,4.53,0,0,1,8.41,0c2.12,5.69,4.39,13,6.66,21.2h0l-4.4,9.36,5.25-6.22c1.42,5.26,2.82,10.86,4.19,16.59l-9.44,20.13,11.15-12.77c.17.78.36,1.58.53,2.38l-4.54,10.39,5.28-7.07c1.92,8.77,3.68,17.59,5.2,25.92L426,127.46l14.17-9.15c.32,1.92.63,3.82.93,5.66l-6.64,7.11,7.42-2.07C443.82,142.41,444.66,152.86,443.69,157Z" style="fill: rgb(255, 255, 255); opacity: 0.65; transform-origin: 414.982px 95.3779px;" class="animable" id="eldeicv24gn4d"></path>
        </g>
        <path d="M417.08,124.28l12.11-22.8-12.31,15.1L415,45.85l-1.48,43-8.62-12.46,8.35,20.23-1.5,43.6L395.3,125.11l16.22,21.49-1.38,60.82c0,2.54,8.62,2.54,8.62,0l-1.68-83.14Z" style="fill: rgb(69, 90, 100); transform-origin: 412.245px 127.588px;" id="elksdv2ow9mub" class="animable"></path>
      </g>
      <g id="freepik--pine--inject-54" class="animable" style="transform-origin: 227.152px 145.78px;">
        <path d="M255.86,183.45c-8.68,6.2-48.45,5.34-57.42,0-.48-2.08-.52-5.77-.17-10.63l13.56,6-13-12.44c.77-7,2-15.48,3.66-24.66l4.95,2.57-4.52-5c.93-5.19,2-10.58,3.09-16l8.08,6.28-7.21-10.45c.23-1.14.47-2.28.71-3.4l11,8.82L209.31,108c1.73-7.64,3.55-15.14,5.37-22.14l7.21,5.3c-.17-.3-3-5-5.94-10,2.38-8.74,4.77-16.49,7-22.46a4.53,4.53,0,0,1,8.41,0c2.12,5.68,4.39,13,6.66,21.19v0l-4.4,9.35,5.25-6.22c1.42,5.27,2.82,10.86,4.18,16.6l-9.43,20.12L244.76,107c.17.79.36,1.59.53,2.38l-4.54,10.39,5.28-7.07c1.91,8.77,3.68,17.59,5.2,25.93l-13.09,15.26,14.17-9.15q.48,2.9.93,5.66l-6.64,7.11,7.42-2.06C256,168.86,256.83,179.32,255.86,183.45Z" style="fill: #008CFF; transform-origin: 227.152px 121.819px;" id="elkkzzg7plto" class="animable"></path>
        <g id="elv7beyfvfvac">
          <path d="M255.86,183.45c-8.68,6.2-48.45,5.34-57.42,0-.48-2.08-.52-5.77-.17-10.63l13.56,6-13-12.44c.77-7,2-15.48,3.66-24.66l4.95,2.57-4.52-5c.93-5.19,2-10.58,3.09-16l8.08,6.28-7.21-10.45c.23-1.14.47-2.28.71-3.4l11,8.82L209.31,108c1.73-7.64,3.55-15.14,5.37-22.14l7.21,5.3c-.17-.3-3-5-5.94-10,2.38-8.74,4.77-16.49,7-22.46a4.53,4.53,0,0,1,8.41,0c2.12,5.68,4.39,13,6.66,21.19v0l-4.4,9.35,5.25-6.22c1.42,5.27,2.82,10.86,4.18,16.6l-9.43,20.12L244.76,107c.17.79.36,1.59.53,2.38l-4.54,10.39,5.28-7.07c1.91,8.77,3.68,17.59,5.2,25.93l-13.09,15.26,14.17-9.15q.48,2.9.93,5.66l-6.64,7.11,7.42-2.06C256,168.86,256.83,179.32,255.86,183.45Z" style="fill: rgb(255, 255, 255); opacity: 0.65; transform-origin: 227.152px 121.819px;" class="animable" id="elc308z11gcgn"></path>
        </g>
        <path d="M229.25,150.73l12.11-22.79L229.05,143l-1.9-70.74-1.48,43-8.62-12.45,8.35,20.23-1.5,43.59-16.43-15.15,16.21,21.49-1.37,60.83c0,2.54,8.62,2.54,8.62,0l-1.68-83.15Z" style="fill: rgb(69, 90, 100); transform-origin: 224.415px 153.983px;" id="eltc2utpucj5" class="animable"></path>
      </g>
      <g id="freepik--pine--inject-54" class="animable" style="transform-origin: 459.452px 178.317px;">
        <path d="M486,223.22c-8.28,5.1-45,5.91-53.07,0-.73-3.21-.35-10.41.8-19.86l10.4,4.44-9.6-10.66c.93-6.48,2.11-13.7,3.49-21.25l6.37,2.79-6-5.05q.5-2.62,1-5.29L450,174.48l-9.56-11.59c1.19-5.88,2.45-11.78,3.77-17.56l5.49,2.95-4.49-7.72c1.37-5.63,4-15.71,5.35-20.65l5.59,4.44-4.72-7.49c1.39-4.81,2.76-9.13,4.07-12.76a4.13,4.13,0,0,1,7.77,0c2,5.53,4.14,12.67,6.27,20.71h0l-4.34,9.86,5.77-4.37c1.51,5.93,3,12.21,4.42,18.63h0l-7.27,18.35,8.72-11.66c.51,2.44,1,4.9,1.52,7.35l-5.19,10.19,5.94-6.38c1.43,7.27,2.71,14.39,3.79,21h0L471.07,206.5l12.85-12.28c.31,2,.58,3.95.83,5.81l-9,11,9.67-5.17C486.38,214.08,486.63,220.3,486,223.22Z" style="fill: #008CFF; transform-origin: 459.452px 164.363px;" id="el0ittqeucgu5" class="animable"></path>
        <g id="el04sps0ro99ob">
          <path d="M486,223.22c-8.28,5.1-45,5.91-53.07,0-.73-3.21-.35-10.41.8-19.86l10.4,4.44-9.6-10.66c.93-6.48,2.11-13.7,3.49-21.25l6.37,2.79-6-5.05q.5-2.62,1-5.29L450,174.48l-9.56-11.59c1.19-5.88,2.45-11.78,3.77-17.56l5.49,2.95-4.49-7.72c1.37-5.63,4-15.71,5.35-20.65l5.59,4.44-4.72-7.49c1.39-4.81,2.76-9.13,4.07-12.76a4.13,4.13,0,0,1,7.77,0c2,5.53,4.14,12.67,6.27,20.71h0l-4.34,9.86,5.77-4.37c1.51,5.93,3,12.21,4.42,18.63h0l-7.27,18.35,8.72-11.66c.51,2.44,1,4.9,1.52,7.35l-5.19,10.19,5.94-6.38c1.43,7.27,2.71,14.39,3.79,21h0L471.07,206.5l12.85-12.28c.31,2,.58,3.95.83,5.81l-9,11,9.67-5.17C486.38,214.08,486.63,220.3,486,223.22Z" style="fill: rgb(255, 255, 255); opacity: 0.35; transform-origin: 459.452px 164.363px;" class="animable" id="elqk0arm2ubp"></path>
        </g>
        <path d="M473.21,177.74l-11.14,15.77-1.17-34,6-20.35L460.68,153l-1.25-36.46L458,169.18l-6.25-7.47,6.07,14.38L457,206l-12.94-12.87,12.7,21.61-.86,38.76c0,2.35,8,2.35,8,0l-1.48-49.78Z" style="fill: rgb(69, 90, 100); transform-origin: 458.635px 185.901px;" id="elv8ylre0o04" class="animable"></path>
      </g>
      <g id="freepik--pine--inject-54" class="animable" style="transform-origin: 367.728px 147.228px;">
        <path d="M390,176.67c-7,4.29-37.84,5-44.58,0-.51-2.25-.37-6.86.25-13l6.91,1.32-6.44-5.58c.3-2.37.65-4.9,1-7.55L360,157l-12.2-9c1.29-8.15,3-17.21,4.88-26.26l9.91,7.92-9-12.25c.78-3.62,1.6-7.21,2.43-10.71l8.05,5-7.1-9c.77-3.14,1.55-6.18,2.32-9.07l4.78,5.22-3.17-11c1.21-4.21,2.4-8,3.54-11.13a3.47,3.47,0,0,1,6.53,0c1.9,5.25,3.95,12.21,6,20.06h0l-3.62,7.76,4.74-3.29c1.52,6.11,3,12.59,4.38,19.13h0l-7.27,15,8.45-9.26c.64,3.14,1.25,6.26,1.81,9.33l-4.7,7.07,5.42-3.17c1.17,6.59,2.15,12.83,2.87,18.3h0l-7.55,12,8.4-4.53C390.44,170.5,390.51,174.59,390,176.67Z" style="fill: #008CFF; transform-origin: 367.728px 127.292px;" id="elvscyshht3n" class="animable"></path>
        <g id="elfk6xwwxzmk">
          <path d="M390,176.67c-7,4.29-37.84,5-44.58,0-.51-2.25-.37-6.86.25-13l6.91,1.32-6.44-5.58c.3-2.37.65-4.9,1-7.55L360,157l-12.2-9c1.29-8.15,3-17.21,4.88-26.26l9.91,7.92-9-12.25c.78-3.62,1.6-7.21,2.43-10.71l8.05,5-7.1-9c.77-3.14,1.55-6.18,2.32-9.07l4.78,5.22-3.17-11c1.21-4.21,2.4-8,3.54-11.13a3.47,3.47,0,0,1,6.53,0c1.9,5.25,3.95,12.21,6,20.06h0l-3.62,7.76,4.74-3.29c1.52,6.11,3,12.59,4.38,19.13h0l-7.27,15,8.45-9.26c.64,3.14,1.25,6.26,1.81,9.33l-4.7,7.07,5.42-3.17c1.17,6.59,2.15,12.83,2.87,18.3h0l-7.55,12,8.4-4.53C390.44,170.5,390.51,174.59,390,176.67Z" style="fill: rgb(255, 255, 255); opacity: 0.35; transform-origin: 367.728px 127.292px;" class="animable" id="elhogh8sq5sr"></path>
        </g>
        <path d="M366.11,148l-9.4-17.7L366.27,142l1.48-54.92,1.15,33.42,6.69-9.67-6.48,15.7,1.16,33.85L383,148.64l-12.59,16.69,1.07,53.2c0,2-6.69,2-6.69,0L366.11,148Z" style="fill: rgb(69, 90, 100); transform-origin: 369.855px 153.555px;" id="elov75s98izw" class="animable"></path>
      </g>
      <g id="freepik--pine--inject-54" class="animable" style="transform-origin: 274.552px 148.57px;">
        <path d="M296.84,178c-6.95,4.29-37.83,5-44.57,0-.52-2.25-.38-6.86.24-13l6.92,1.32L253,160.76c.3-2.37.64-4.9,1-7.55l12.81,5.12-12.2-9c1.3-8.15,3-17.21,4.88-26.26l9.91,7.92-9-12.25c.78-3.62,1.59-7.21,2.42-10.71l8.05,5-7.09-9c.77-3.14,1.54-6.18,2.31-9.07l4.78,5.22-3.17-11c1.22-4.21,2.41-8,3.55-11.13a3.46,3.46,0,0,1,6.52,0c1.9,5.25,3.95,12.21,6,20.06h0l-3.62,7.76,4.75-3.29c1.51,6.11,3,12.59,4.38,19.13h0l-7.28,15,8.46-9.26c.63,3.14,1.24,6.26,1.8,9.33l-4.7,7.07,5.42-3.17c1.17,6.59,2.16,12.83,2.88,18.3h0l-7.56,12,8.4-4.53C297.24,171.81,297.31,175.9,296.84,178Z" style="fill: #008CFF; transform-origin: 274.552px 128.619px;" id="elnr9bg5j23lg" class="animable"></path>
        <g id="elbdfeq9k1yp">
          <path d="M296.84,178c-6.95,4.29-37.83,5-44.57,0-.52-2.25-.38-6.86.24-13l6.92,1.32L253,160.76c.3-2.37.64-4.9,1-7.55l12.81,5.12-12.2-9c1.3-8.15,3-17.21,4.88-26.26l9.91,7.92-9-12.25c.78-3.62,1.59-7.21,2.42-10.71l8.05,5-7.09-9c.77-3.14,1.54-6.18,2.31-9.07l4.78,5.22-3.17-11c1.22-4.21,2.41-8,3.55-11.13a3.46,3.46,0,0,1,6.52,0c1.9,5.25,3.95,12.21,6,20.06h0l-3.62,7.76,4.75-3.29c1.51,6.11,3,12.59,4.38,19.13h0l-7.28,15,8.46-9.26c.63,3.14,1.24,6.26,1.8,9.33l-4.7,7.07,5.42-3.17c1.17,6.59,2.16,12.83,2.88,18.3h0l-7.56,12,8.4-4.53C297.24,171.81,297.31,175.9,296.84,178Z" style="fill: rgb(255, 255, 255); opacity: 0.35; transform-origin: 274.552px 128.619px;" class="animable" id="elzsiowxxo8sg"></path>
        </g>
        <path d="M272.92,149.31l-9.4-17.7,9.56,11.72,1.47-54.92,1.15,33.42,6.7-9.67-6.49,15.7,1.16,33.85L289.83,150l-12.59,16.69,1.07,53.2c0,2-6.69,2-6.69,0l1.3-70.53Z" style="fill: rgb(69, 90, 100); transform-origin: 276.675px 154.9px;" id="el1ebwrbmc0sr" class="animable"></path>
      </g>
      <g id="freepik--pine--inject-54" class="animable" style="transform-origin: 131.424px 136.092px;">
        <path d="M156.55,169.31c-7.84,4.84-42.65,5.6-50.25,0-.58-2.54-.42-7.73.28-14.62l7.79,1.49-7.26-6.28c.34-2.67.73-5.53,1.18-8.52l14.44,5.78L109,137c1.46-9.18,3.36-19.41,5.5-29.61l11.17,8.93-10.14-13.8c.88-4.08,1.8-8.13,2.74-12.07l9.07,5.67-8-10.2c.87-3.53,1.74-7,2.61-10.22l5.39,5.89L123.75,69.1c1.37-4.74,2.71-9,4-12.55a3.91,3.91,0,0,1,7.36,0c2.14,5.92,4.45,13.77,6.74,22.61v0l-4.08,8.74,5.35-3.7c1.7,6.88,3.37,14.19,4.93,21.56h0l-8.2,16.94,9.53-10.44c.72,3.54,1.41,7.06,2,10.52l-5.3,8,6.11-3.56c1.32,7.42,2.43,14.45,3.24,20.62v0l-8.52,13.5,9.47-5.11C157,162.35,157.08,167,156.55,169.31Z" style="fill: #008CFF; transform-origin: 131.424px 113.596px;" id="elfpfdqrxbaz" class="animable"></path>
        <g id="el1dud57o9pa8i">
          <path d="M156.55,169.31c-7.84,4.84-42.65,5.6-50.25,0-.58-2.54-.42-7.73.28-14.62l7.79,1.49-7.26-6.28c.34-2.67.73-5.53,1.18-8.52l14.44,5.78L109,137c1.46-9.18,3.36-19.41,5.5-29.61l11.17,8.93-10.14-13.8c.88-4.08,1.8-8.13,2.74-12.07l9.07,5.67-8-10.2c.87-3.53,1.74-7,2.61-10.22l5.39,5.89L123.75,69.1c1.37-4.74,2.71-9,4-12.55a3.91,3.91,0,0,1,7.36,0c2.14,5.92,4.45,13.77,6.74,22.61v0l-4.08,8.74,5.35-3.7c1.7,6.88,3.37,14.19,4.93,21.56h0l-8.2,16.94,9.53-10.44c.72,3.54,1.41,7.06,2,10.52l-5.3,8,6.11-3.56c1.32,7.42,2.43,14.45,3.24,20.62v0l-8.52,13.5,9.47-5.11C157,162.35,157.08,167,156.55,169.31Z" style="fill: rgb(255, 255, 255); opacity: 0.25; transform-origin: 131.424px 113.596px;" class="animable" id="elub51ezqwxrp"></path>
        </g>
        <path d="M129.58,137,119,117l10.78,13.21,1.66-61.91,1.3,37.67,7.55-10.9L133,112.82,134.26,151l14.38-13.25-14.19,18.8,1.21,60c0,2.23-7.54,2.23-7.54,0L129.58,137Z" style="fill: rgb(69, 90, 100); transform-origin: 133.82px 143.261px;" id="elgkn0xutwpfa" class="animable"></path>
      </g>
    </g>
  </g>
  <g id="freepik--Bushes--inject-54" class="animable" style="transform-origin: 249.999px 248.821px;">
    <path d="M287.5,210.21a4.87,4.87,0,0,0-7.38-1.35,12.07,12.07,0,0,0-2.17-6.34,6.93,6.93,0,0,0-5.85-2.86,4.9,4.9,0,0,0-4.49,4.31,5,5,0,0,0-5.09-2.14c-1.89.49-3.25,2.77-2.43,4.55a7.27,7.27,0,0,0-13.72,1.11,7.83,7.83,0,0,0-3.66-4.12,4.52,4.52,0,0,0-5.19.8,7.44,7.44,0,0,0-7.81-5.22c-3.37.5-6,4.18-5.11,7.47a7.09,7.09,0,0,0-12,.31,6.29,6.29,0,0,0-11-2.82,4.32,4.32,0,0,0-1.33-4,7.15,7.15,0,0,0-3.31-1.65,5.69,5.69,0,0,0-2.53-.08,6.32,6.32,0,0,0,.75-3.75c-.3-2.26-2.38-4-4.48-4.59a6.09,6.09,0,0,0-4.05.35c-2.08-7.58-13.09-6.78-14.8-.63a4.53,4.53,0,0,0-6.53.75c-.88-3.75-6.67-2.5-8.57-.24,2.51-4,3.13-8.85-1.45-11.6-3.31-2-7.35-2.25-9.4,1.47.61-7.15-8.65-8.43-11.25-2.34-5.57-5.26-16.06,2.45-10.89,9.09-1.73-.1-3,.81-4.39,1.56a8.35,8.35,0,0,0-3.22,3.05,19.36,19.36,0,0,0-2,4.94,7.25,7.25,0,0,0-8.8-5c-.31-1.1,0-2.19-.3-3.32a8.83,8.83,0,0,0-1-2.29,11.16,11.16,0,0,0-3.6-3.6,14.9,14.9,0,0,0-9.32-2.21,11.22,11.22,0,0,0-4.45,1.34,8.72,8.72,0,0,0-1.84,1.35c-.22.21-1.54,1.46-1.42,1.77-3.08-7.63-17.33-1.91-14.28,5.29-5.38-2-14.05,4.72-10,11.12-6.06-.08-8.78,8.7-3.71,12.54-3.72.91-4.93,7.73-.58,11.13-2.52,0-6.44,4.86-6.32,7.48-2.16-4.76-11.75-4.37-12,2.39-6-2.3-11.9,2.15-9.77,8.57-6.72,1.32-7.75,8.49-5.66,13.73C12.58,257.27,10.79,270,16.7,276c-8.57,2.67-8.61,15.13-1.87,19.94-4.46,2.13-4.91,12.49,2.37,15.35-.19.17-.37.35-.54.53-4.28,4.57-.7,12.11,5.57,12.11H478c6.13,0,9.64-7.38,5.44-11.86-.16-.18-.34-.35-.52-.52,7.13-2.8,6.69-12.95,2.32-15,6.61-4.71,6.56-16.92-1.84-19.53,5.8-5.81,4-18.31-4.35-19.08,2.05-5.13,1-12.15-5.55-13.45,2.09-6.29-3.73-10.65-9.57-8.39-.25-6.63-9.64-7-11.75-2.34.11-2.57-3.73-7.32-6.2-7.33,4.26-3.34,3.08-10-.57-10.9,5-3.77,2.31-12.37-3.62-12.29,4-6.27-4.51-12.82-9.79-10.88,3-7-11-12.66-14-5.19-5.34-8.8-23.65-3.62-21.2,7.81-4.37-.54-6.22,2.29-4.73,6.56a4.77,4.77,0,0,0-7.11,3.08,3.38,3.38,0,0,0-2.82-4.41c5.81-2.36,1.74-11-3.62-10.64,5.06-6.51-5.21-14.07-10.67-8.91-2.54-6-11.61-4.71-11,2.29-2-3.65-6-3.39-9.22-1.44-4.48,2.69-3.88,7.48-1.41,11.37-1.86-2.22-7.53-3.45-8.39.23a4.43,4.43,0,0,0-6.4-.73c-1.68-6-12.46-6.81-14.5.61-5-2.86-7.9,3-7.68,7.07a6.71,6.71,0,0,0-3.92.06,3,3,0,0,0-2,3.09,5.64,5.64,0,0,0-8.85,1.81c.69-1.46-4.68-1.66-5.33-1.38C286.82,204.6,287.15,208,287.5,210.21Z" style="fill: rgb(69, 90, 100); transform-origin: 249.986px 248.821px;" id="elebhfx2dsk39" class="animable"></path>
    <path d="M77.85,204.61a6.87,6.87,0,0,1,9.69-.58,6.71,6.71,0,0,1,1.26,1.53,6.86,6.86,0,0,1,11.12,3.94,8.16,8.16,0,0,0-13.58,1.62,5.87,5.87,0,0,1,0-1.18,6.77,6.77,0,0,1,.93-2.64,6.35,6.35,0,0,0-.72-.75,8.15,8.15,0,0,0-9.44-1A5.28,5.28,0,0,1,77.85,204.61Z" style="fill: rgb(55, 71, 79); transform-origin: 88.515px 206.712px;" id="el3m2e4nqpzh3" class="animable"></path>
    <path d="M149.25,192.78a5.29,5.29,0,0,0-7.47-.45,5.4,5.4,0,0,0-1,1.18,5.29,5.29,0,0,0-8.57,3,6.3,6.3,0,0,1,10.47,1.25,4,4,0,0,0,0-.91,5.29,5.29,0,0,0-.72-2,5.9,5.9,0,0,1,.55-.57,6.28,6.28,0,0,1,7.29-.77A4.17,4.17,0,0,0,149.25,192.78Z" style="fill: rgb(55, 71, 79); transform-origin: 141.005px 194.379px;" id="elyzkl97gbei" class="animable"></path>
    <path d="M68.26,231.25c-.78-1.08-4.26-.65-5.37-.44a7.53,7.53,0,0,0-5.72,9.83,6.08,6.08,0,0,0-6.74,8.76c-4.42-1-11.21-.22-14.67,3.12-1.89,1.84-2.62,5-1.18,7.22-.27-.42-3.75-.46-6.62,1.32A6.6,6.6,0,0,0,25,266.29a10.82,10.82,0,0,0,2,6.59c-.23-.44-2.91,1.43-3.15,1.65A6.8,6.8,0,0,0,22,277.47a3.67,3.67,0,0,0,3.2,4.59,9.94,9.94,0,0,0-4.42,3.48A5.52,5.52,0,0,0,20.3,291c1.15,2.23,3.87,3,6.3,3.65a6.94,6.94,0,0,0-1.73,6.16,4.78,4.78,0,0,0,4.91,3.62,6.61,6.61,0,0,0,3.12,12.19c-1.23-.08-2.16,2.48-2.47,3.29a45,45,0,0,1-2.07,4H22.23c-6.27,0-9.85-7.54-5.57-12.11.17-.18.35-.36.54-.53-7.28-2.86-6.83-13.22-2.37-15.35-6.74-4.81-6.7-17.27,1.87-19.94-5.91-5.93-4.12-18.69,4.45-19.48-2.09-5.24-1.06-12.41,5.66-13.73-2.13-6.42,3.82-10.87,9.77-8.57.26-6.76,9.85-7.15,12-2.39-.12-2.62,3.8-7.47,6.32-7.48-4.35-3.4-3.14-10.22.58-11.13-5.07-3.84-2.35-12.62,3.71-12.54-3.23-5.08,1.57-10.34,6.38-11.31-1.75,1.94-3.33,4.54-2.06,7.21,1.13,2.4,4.22,2.82,6.26,3.82-4.86,1.64-7.09,6.52-3.47,10.79-5,.63-5.59,7.21-3.61,9.88,1.22-1.06,3.74-1.3,5.59-.95,2.48.48,3.82,1.73,6,4.22C69.94,220.9,65.47,227.41,68.26,231.25Z" style="fill: rgb(55, 71, 79); transform-origin: 42.1407px 256.63px;" id="elgtk1oe2803r" class="animable"></path>
    <path d="M423.55,207.06a6.72,6.72,0,0,0-9.49-.56,6.23,6.23,0,0,0-1.24,1.49,6.72,6.72,0,0,0-10.89,3.86,8,8,0,0,1,13.3,1.59,5.56,5.56,0,0,0,0-1.15,6.56,6.56,0,0,0-.91-2.6,6.79,6.79,0,0,1,.7-.72,8,8,0,0,1,9.25-1A6.49,6.49,0,0,0,423.55,207.06Z" style="fill: rgb(55, 71, 79); transform-origin: 413.1px 209.121px;" id="elfql9dkppuuq" class="animable"></path>
    <path d="M353.61,195.48a5.18,5.18,0,0,1,7.32-.44,4.94,4.94,0,0,1,1,1.15,5.19,5.19,0,0,1,8.4,3,6.23,6.23,0,0,0-3.94-2.16,6.15,6.15,0,0,0-6.32,3.38,3.74,3.74,0,0,1,0-.88,5,5,0,0,1,.7-2,4.81,4.81,0,0,0-.54-.57,6.15,6.15,0,0,0-7.13-.75A3.92,3.92,0,0,1,353.61,195.48Z" style="fill: rgb(55, 71, 79); transform-origin: 361.715px 197.071px;" id="el7urykvmc8mx" class="animable"></path>
    <path d="M485.27,296.48c4.37,2.08,4.81,12.23-2.32,15,.18.17.36.34.52.52,4.2,4.48.69,11.86-5.44,11.86h-6a8.3,8.3,0,0,0-6.9-4.87c2-1.7,5-3.43,6.14-5.82.43-.86,1.3-6.56-.68-6.54a5.77,5.77,0,0,0,5.49-5.27c.13-2.33-1.19-4.46-2.45-6.42a8.57,8.57,0,0,0,3.11-14,2.38,2.38,0,0,1-.63-.82c-.3-.83.47-1.61,1-2.26a7.28,7.28,0,0,0-4.39-12.07,7.18,7.18,0,0,0-7.5-10.25c1.61-2.55.23-6.2-2.33-7.79s-5.87-1.48-8.76-.65a5.61,5.61,0,0,0-2.45-6.15,7.57,7.57,0,0,0-6.83-.45c.52-4.21-2.92-7.05-6.69-7.76-1.09-.21-4.5-.63-5.26.42,2.73-3.75-1.64-10.13-6-6.8,2.19-2.44,3.5-3.67,5.93-4.13,1.81-.34,4.28-.11,5.47.92,1.94-2.61,1.32-9.06-3.53-9.67,3.54-4.18,1.36-9-3.4-10.57,2-1,5-1.39,6.14-3.74,1.24-2.62-.32-5.16-2-7.06,4.71.94,9.42,6.1,6.26,11.07,5.93-.08,8.59,8.52,3.62,12.29,3.65.89,4.83,7.56.57,10.9,2.47,0,6.31,4.76,6.2,7.33,2.11-4.67,11.5-4.29,11.75,2.34,5.84-2.26,11.66,2.1,9.57,8.39,6.59,1.3,7.6,8.32,5.55,13.45,8.39.77,10.15,13.27,4.35,19.08C491.83,279.56,491.88,291.77,485.27,296.48Z" style="fill: rgb(55, 71, 79); transform-origin: 458.448px 257.985px;" id="el9bnp9fnpt4e" class="animable"></path>
  </g>
  <g id="freepik--Floor--inject-54" class="animable" style="transform-origin: 249.7px 340.94px;">
    <g id="freepik--floor--inject-54" class="animable" style="transform-origin: 249.7px 340.94px;">
      <ellipse id="freepik--Grass--inject-54" cx="249.7" cy="340.94" rx="240.59" ry="147.23" style="fill: #008CFF; transform-origin: 249.7px 340.94px;" class="animable"></ellipse>
      <g id="freepik--grass--inject-54">
        <ellipse cx="249.7" cy="340.94" rx="240.59" ry="147.23" style="fill: rgb(255, 255, 255); opacity: 0.4; transform-origin: 249.7px 340.94px;" class="animable" id="elar1u1ja18j"></ellipse>
      </g>
      <g id="el2qh1f6fr8l">
        <g style="opacity: 0.3; transform-origin: 265.522px 344.268px;" class="animable" id="elbqrvc5luzup">
          <path d="M460.34,342.78a7.64,7.64,0,0,1,1.16-2.34,8.18,8.18,0,0,1,1.12-1.16c.26-.23.65-.6,1-.5.11,0,.1.24.05.31-.24.32-.6.54-.82.89a5.3,5.3,0,0,0-.4.95,16.24,16.24,0,0,0-1.12,5.07c0,.42-.06.82-.1,1.23a5.82,5.82,0,0,1-.28,1.11c-.05.13-.26.36-.4.2a4.05,4.05,0,0,1-.74-3A9.75,9.75,0,0,1,460.34,342.78Z" style="fill: #008CFF; transform-origin: 461.735px 343.679px;" id="elp6zgqqd48jg" class="animable"></path>
          <path d="M457.3,330.16c1.76,2.17,1.77,5.31,1.79,8,0,1.61,0,3.22,0,4.82a18.8,18.8,0,0,1-.44,5.15c-.06.18-.43.55-.55.21-.52-1.4-.32-3.27-.35-4.76s0-3.17,0-4.75a38.21,38.21,0,0,0-.21-4.28c-.16-1.34-.46-2.66-.63-4C456.85,330.37,457.12,330,457.3,330.16Z" style="fill: #008CFF; transform-origin: 458.009px 339.3px;" id="eljbvutrnazu" class="animable"></path>
          <path d="M453.2,338.7c.91.18,1.57,1.21,2,2a9,9,0,0,1,.8,2.19,15.52,15.52,0,0,1,.39,2.61,3.73,3.73,0,0,1-.37,2.79c-.08.09-.29.21-.41.11-.67-.57-.51-1.68-.57-2.49a16.78,16.78,0,0,0-.37-2.64,11.91,11.91,0,0,0-.72-2.16,9.5,9.5,0,0,1-.91-2C453,338.94,453,338.67,453.2,338.7Z" style="fill: #008CFF; transform-origin: 454.765px 343.568px;" id="elco0iuenmo6" class="animable"></path>
          <path d="M412.35,287.11a7.56,7.56,0,0,1,1.17-2.34,8.13,8.13,0,0,1,1.11-1.16c.26-.23.66-.6,1-.5.11,0,.1.24,0,.31a11.65,11.65,0,0,0-.83.89,4.63,4.63,0,0,0-.39.95,17.05,17.05,0,0,0-.79,2.61,18.41,18.41,0,0,0-.33,2.46c0,.42-.06.82-.11,1.23a5.16,5.16,0,0,1-.28,1.11c0,.13-.26.35-.4.2a4.15,4.15,0,0,1-.74-3A10.49,10.49,0,0,1,412.35,287.11Z" style="fill: #008CFF; transform-origin: 413.714px 288.007px;" id="el0xext6syu5fq" class="animable"></path>
          <path d="M409.32,274.49c1.75,2.17,1.77,5.31,1.79,8,0,1.6,0,3.22-.06,4.82a19.19,19.19,0,0,1-.43,5.15c-.06.18-.43.55-.56.21-.51-1.4-.32-3.27-.35-4.76s0-3.17,0-4.75a38.21,38.21,0,0,0-.21-4.28c-.15-1.34-.46-2.66-.62-4C408.87,274.7,409.14,274.27,409.32,274.49Z" style="fill: #008CFF; transform-origin: 409.995px 283.619px;" id="els5w0joyvzcl" class="animable"></path>
          <path d="M405.22,283c.91.18,1.57,1.21,2,2a9.9,9.9,0,0,1,.8,2.19,16.44,16.44,0,0,1,.39,2.61,3.78,3.78,0,0,1-.38,2.79c-.07.09-.29.21-.4.11-.68-.57-.51-1.68-.57-2.49a19.5,19.5,0,0,0-.37-2.64,12.77,12.77,0,0,0-.73-2.16,9.33,9.33,0,0,1-.9-2.05C405,283.27,405.05,283,405.22,283Z" style="fill: #008CFF; transform-origin: 406.78px 287.869px;" id="eljdu9ibon6v9" class="animable"></path>
          <path d="M209.08,290.9a6.4,6.4,0,0,1,1-2.06,7.14,7.14,0,0,1,1-1c.23-.2.58-.53.9-.44.09,0,.09.21,0,.27-.21.28-.53.47-.72.78a4,4,0,0,0-.34.83,14.23,14.23,0,0,0-.69,2.28,17.53,17.53,0,0,0-.3,2.16c0,.36-.05.71-.09,1.07a4.68,4.68,0,0,1-.24,1c0,.11-.23.31-.35.17a3.57,3.57,0,0,1-.65-2.61A8.7,8.7,0,0,1,209.08,290.9Z" style="fill: #008CFF; transform-origin: 210.306px 291.696px;" id="elgypvckxlx7v" class="animable"></path>
          <path d="M206.42,279.86c1.54,1.89,1.55,4.63,1.57,7,0,1.41,0,2.82-.05,4.22a16.55,16.55,0,0,1-.38,4.51c-.05.16-.38.47-.48.18a13.51,13.51,0,0,1-.31-4.17c0-1.38,0-2.77,0-4.15a33.64,33.64,0,0,0-.19-3.75c-.13-1.17-.4-2.32-.54-3.49C206,280,206.27,279.66,206.42,279.86Z" style="fill: #008CFF; transform-origin: 207.013px 287.844px;" id="el5o2v2tsnaxa" class="animable"></path>
          <path d="M202.84,287.33c.79.15,1.37,1.05,1.72,1.72a8.18,8.18,0,0,1,.7,1.92,14.71,14.71,0,0,1,.34,2.29,3.24,3.24,0,0,1-.33,2.43c-.06.08-.25.19-.35.1-.59-.5-.45-1.47-.5-2.18a18.07,18.07,0,0,0-.32-2.31,11.26,11.26,0,0,0-.64-1.88,8.71,8.71,0,0,1-.79-1.8C202.65,287.53,202.69,287.3,202.84,287.33Z" style="fill: #008CFF; transform-origin: 204.184px 291.576px;" id="eljpr28iwjds" class="animable"></path>
          <path d="M76.73,259.36a6.46,6.46,0,0,1,1-2.05,7.8,7.8,0,0,1,1-1c.23-.2.58-.52.9-.44.1,0,.09.21,0,.27-.21.29-.53.48-.72.78a4.35,4.35,0,0,0-.34.84,15,15,0,0,0-.69,2.28,15.58,15.58,0,0,0-.29,2.16c0,.36-.05.71-.1,1.07a4.59,4.59,0,0,1-.24,1c0,.12-.23.31-.35.18a3.62,3.62,0,0,1-.65-2.61A8.7,8.7,0,0,1,76.73,259.36Z" style="fill: #008CFF; transform-origin: 77.9588px 260.176px;" id="elwtrcgzgqfj" class="animable"></path>
          <path d="M74.07,248.32c1.54,1.89,1.55,4.64,1.57,7,0,1.4,0,2.81,0,4.22a16.51,16.51,0,0,1-.38,4.5c0,.16-.37.48-.48.18a13.45,13.45,0,0,1-.31-4.16c0-1.39,0-2.77,0-4.16a31.13,31.13,0,0,0-.19-3.74c-.13-1.18-.4-2.33-.54-3.5C73.68,248.5,73.92,248.13,74.07,248.32Z" style="fill: #008CFF; transform-origin: 74.6969px 256.305px;" id="elp769ly30mx" class="animable"></path>
          <path d="M70.49,255.79c.79.15,1.37,1.06,1.72,1.73a8.1,8.1,0,0,1,.7,1.91,13.61,13.61,0,0,1,.34,2.29,3.26,3.26,0,0,1-.33,2.44c-.06.08-.25.18-.35.1-.59-.5-.45-1.48-.5-2.18a14.93,14.93,0,0,0-.32-2.31,10.52,10.52,0,0,0-.64-1.89,8.63,8.63,0,0,1-.79-1.79C70.3,256,70.34,255.76,70.49,255.79Z" style="fill: #008CFF; transform-origin: 71.8344px 260.038px;" id="ellreggyh28j" class="animable"></path>
          <path d="M73.75,393.19a6.67,6.67,0,0,1,1-2.05,7.8,7.8,0,0,1,1-1c.23-.2.58-.52.9-.43.1,0,.09.2,0,.26-.21.29-.53.48-.72.78a4.35,4.35,0,0,0-.34.84,15,15,0,0,0-.69,2.28,15.58,15.58,0,0,0-.29,2.16c0,.36,0,.71-.09,1.07a5.31,5.31,0,0,1-.25,1c0,.12-.22.31-.35.18a3.62,3.62,0,0,1-.65-2.61A8.76,8.76,0,0,1,73.75,393.19Z" style="fill: #008CFF; transform-origin: 74.9788px 394.009px;" id="eliv2c58vg75c" class="animable"></path>
          <path d="M71.09,382.15c1.54,1.89,1.55,4.64,1.57,7,0,1.4,0,2.81,0,4.22a16.51,16.51,0,0,1-.38,4.5c0,.16-.37.48-.48.18a13.45,13.45,0,0,1-.31-4.16c0-1.39,0-2.77,0-4.15a31.19,31.19,0,0,0-.19-3.75c-.13-1.17-.4-2.33-.54-3.5C70.7,382.33,70.94,382,71.09,382.15Z" style="fill: #008CFF; transform-origin: 71.7169px 390.143px;" id="el961lb3f2bqi" class="animable"></path>
          <path d="M67.51,389.62c.79.15,1.37,1.06,1.72,1.73a8.18,8.18,0,0,1,.7,1.92,13.34,13.34,0,0,1,.34,2.28,3.22,3.22,0,0,1-.33,2.44c-.06.08-.25.18-.35.1-.59-.5-.44-1.48-.5-2.18a14.93,14.93,0,0,0-.32-2.31,10.52,10.52,0,0,0-.64-1.89,8.63,8.63,0,0,1-.79-1.79C67.33,389.82,67.36,389.59,67.51,389.62Z" style="fill: #008CFF; transform-origin: 68.8574px 393.868px;" id="elrpbnm92jla" class="animable"></path>
          <path d="M275.06,435.27a6.88,6.88,0,0,0-1.07-2.15,7.78,7.78,0,0,0-1-1.06c-.24-.21-.6-.55-.94-.46-.1,0-.09.22-.05.29a9.71,9.71,0,0,1,.76.81,5.5,5.5,0,0,1,.36.87,16.45,16.45,0,0,1,.72,2.39,17.12,17.12,0,0,1,.3,2.25c0,.38.06.75.1,1.12a4.36,4.36,0,0,0,.26,1c0,.12.23.32.36.19a3.8,3.8,0,0,0,.68-2.73A9.12,9.12,0,0,0,275.06,435.27Z" style="fill: #008CFF; transform-origin: 273.773px 436.074px;" id="el0v1d2jf42vv" class="animable"></path>
          <path d="M277.84,423.73c-1.61,2-1.62,4.85-1.64,7.29,0,1.47,0,2.94.05,4.41a17.19,17.19,0,0,0,.4,4.71c.05.17.39.5.5.19a14,14,0,0,0,.32-4.35c0-1.45,0-2.9,0-4.34a34.19,34.19,0,0,1,.2-3.92c.14-1.23.42-2.43.57-3.65C278.25,423.92,278,423.53,277.84,423.73Z" style="fill: #008CFF; transform-origin: 277.22px 432.066px;" id="el18z6axatt1h" class="animable"></path>
          <path d="M281.58,431.54c-.82.16-1.43,1.1-1.8,1.8a9,9,0,0,0-.73,2,14.65,14.65,0,0,0-.35,2.39,3.37,3.37,0,0,0,.34,2.54c.07.09.26.2.37.11.62-.52.46-1.54.52-2.28a16.26,16.26,0,0,1,.34-2.41,11.5,11.5,0,0,1,.66-2,8.41,8.41,0,0,0,.83-1.87C281.78,431.75,281.74,431.51,281.58,431.54Z" style="fill: #008CFF; transform-origin: 280.177px 435.975px;" id="elwmvuqqq5j98" class="animable"></path>
          <path d="M133.05,328.75a6.65,6.65,0,0,1,1-2.05,8.4,8.4,0,0,1,1-1c.23-.19.58-.52.9-.43.09,0,.09.2,0,.27-.21.28-.53.47-.72.77a4.35,4.35,0,0,0-.34.84,14.86,14.86,0,0,0-.69,2.27,17.09,17.09,0,0,0-.29,2.15c0,.36-.05.71-.09,1.07a4.46,4.46,0,0,1-.25,1c0,.12-.22.31-.34.18a3.57,3.57,0,0,1-.65-2.61A8.76,8.76,0,0,1,133.05,328.75Z" style="fill: #008CFF; transform-origin: 134.281px 329.559px;" id="elg4nppgd79w5" class="animable"></path>
          <path d="M130.4,317.74c1.53,1.89,1.54,4.63,1.56,7,0,1.4,0,2.81-.05,4.21a16.41,16.41,0,0,1-.38,4.49c-.05.16-.37.48-.48.18a13.67,13.67,0,0,1-.31-4.15c0-1.38,0-2.76,0-4.14a33.33,33.33,0,0,0-.18-3.74c-.14-1.17-.4-2.32-.55-3.48C130,317.92,130.24,317.55,130.4,317.74Z" style="fill: #008CFF; transform-origin: 130.985px 325.715px;" id="elcy2eyg12u9k" class="animable"></path>
          <path d="M126.82,325.19c.79.15,1.37,1.06,1.72,1.72a8.18,8.18,0,0,1,.7,1.92,14.41,14.41,0,0,1,.34,2.28,3.28,3.28,0,0,1-.33,2.43c-.06.08-.25.18-.35.1-.59-.5-.45-1.47-.5-2.18a16.31,16.31,0,0,0-.32-2.3,10.42,10.42,0,0,0-.64-1.88,8.63,8.63,0,0,1-.79-1.79C126.64,325.4,126.67,325.16,126.82,325.19Z" style="fill: #008CFF; transform-origin: 128.164px 329.428px;" id="elc989upn3ihm" class="animable"></path>
          <path d="M275.66,250.58a6.67,6.67,0,0,1,1-2.05,7.14,7.14,0,0,1,1-1c.23-.2.58-.53.9-.44.09,0,.09.21,0,.27-.21.29-.53.47-.72.78a4,4,0,0,0-.34.83,15.21,15.21,0,0,0-.69,2.27,15.78,15.78,0,0,0-.29,2.16c0,.36-.05.71-.09,1.07a4.77,4.77,0,0,1-.25,1c0,.11-.22.31-.34.17a3.55,3.55,0,0,1-.65-2.6A9,9,0,0,1,275.66,250.58Z" style="fill: #008CFF; transform-origin: 276.891px 251.381px;" id="el5m8fg2i9l5d" class="animable"></path>
          <path d="M273,239.57c1.53,1.89,1.54,4.62,1.56,7,0,1.4,0,2.8-.05,4.2a16.48,16.48,0,0,1-.38,4.5c0,.16-.37.47-.48.18a13.76,13.76,0,0,1-.31-4.16c0-1.38,0-2.76,0-4.14a33.15,33.15,0,0,0-.18-3.73c-.14-1.17-.4-2.32-.55-3.49C272.62,239.75,272.86,239.38,273,239.57Z" style="fill: #008CFF; transform-origin: 273.585px 247.543px;" id="elsdo9jyp2dk" class="animable"></path>
          <path d="M269.44,247c.79.15,1.37,1,1.72,1.72a8.27,8.27,0,0,1,.7,1.91,14.76,14.76,0,0,1,.34,2.28,3.28,3.28,0,0,1-.33,2.43c-.07.08-.25.19-.35.1-.59-.49-.45-1.47-.5-2.17a17.92,17.92,0,0,0-.32-2.3,10.52,10.52,0,0,0-.64-1.89,8.56,8.56,0,0,1-.79-1.78C269.26,247.22,269.29,247,269.44,247Z" style="fill: #008CFF; transform-origin: 270.784px 251.237px;" id="elo1li4dznryn" class="animable"></path>
          <path d="M158.08,443.72a6.93,6.93,0,0,1,1.07-2.14,7.31,7.31,0,0,1,1-1.06c.23-.21.6-.55.93-.46.1,0,.1.22.05.28-.23.3-.55.5-.75.82a4.46,4.46,0,0,0-.37.87,16.7,16.7,0,0,0-.72,2.38,19.15,19.15,0,0,0-.3,2.26c0,.38,0,.74-.1,1.12a5.24,5.24,0,0,1-.25,1c0,.12-.24.32-.37.18a3.73,3.73,0,0,1-.67-2.73A9.18,9.18,0,0,1,158.08,443.72Z" style="fill: #008CFF; transform-origin: 159.362px 444.532px;" id="elqus7y5m26ja" class="animable"></path>
          <path d="M155.31,432.18c1.6,2,1.61,4.85,1.63,7.3,0,1.46,0,2.94-.05,4.41a16.84,16.84,0,0,1-.4,4.71c-.05.16-.39.5-.5.19a14.12,14.12,0,0,1-.32-4.36c0-1.44,0-2.89,0-4.34a34.31,34.31,0,0,0-.2-3.92c-.14-1.22-.42-2.42-.57-3.65C154.89,432.37,155.14,432,155.31,432.18Z" style="fill: #008CFF; transform-origin: 155.92px 440.524px;" id="el4hb8045rphd" class="animable"></path>
          <path d="M151.56,440c.83.16,1.43,1.11,1.8,1.81a8.87,8.87,0,0,1,.73,2,15,15,0,0,1,.36,2.39,3.45,3.45,0,0,1-.35,2.55c-.06.08-.26.19-.37.1-.62-.52-.46-1.54-.52-2.27a17.82,17.82,0,0,0-.33-2.42,12.36,12.36,0,0,0-.67-2,8.28,8.28,0,0,1-.83-1.88C151.37,440.2,151.4,440,151.56,440Z" style="fill: #008CFF; transform-origin: 152.966px 444.442px;" id="elb1ruf9l3l3" class="animable"></path>
        </g>
      </g>
    </g>
  </g>
  <g id="freepik--Shadows--inject-54" class="animable" style="transform-origin: 236.045px 324.605px;">
    <g id="freepik--Shadow--inject-54">
      <path d="M276.91,382.63a142.07,142.07,0,0,1,30.53,15.11c10.7,7,20.5,15.48,31.89,21.29,14.81,7.55,31.8,10.26,48.4,9.44,9.41-.46,19.63-2.49,25.62-9.76a10.7,10.7,0,0,0,2.78-6.53c0-3.54-2.46-6.57-5-9-13.73-13-32.84-18.28-51.27-22.43S330.35,371.4,312.24,362c-7.75-4-15.39-8.33-23.2-12.12l-.19-.09c-4-1.91-7.69-4-11.87-5.51a91.91,91.91,0,0,0-20.52-5.24,42,42,0,0,0-20.85,2.5,9.26,9.26,0,0,0-4.37,3.13,7.5,7.5,0,0,0-1.05,4.43,15.84,15.84,0,0,0,3.26,8.68,34.24,34.24,0,0,0,6.7,6.58C250.93,372.83,264.09,378.1,276.91,382.63Z" style="opacity: 0.15; transform-origin: 323.149px 383.639px;" class="animable" id="elfvz9kd00euo"></path>
    </g>
    <g id="freepik--shadow--inject-54">
      <path d="M77.75,378.41a142.72,142.72,0,0,1,30.53,15.1c10.7,7,20.49,15.48,31.89,21.29,14.81,7.56,31.79,10.27,48.4,9.45,9.41-.46,19.63-2.5,25.62-9.76A10.82,10.82,0,0,0,217,408c0-3.54-2.46-6.57-5-9-13.73-13-32.84-18.29-51.27-22.43s-29.49-9.35-47.6-18.73c-7.75-4-15.39-8.33-23.2-12.11l-.19-.09c-4-1.91-7.68-4-11.86-5.52a92,92,0,0,0-20.52-5.23,42,42,0,0,0-20.85,2.5,9.34,9.34,0,0,0-4.38,3.13A7.6,7.6,0,0,0,31,344.9a16,16,0,0,0,3.26,8.69A34.24,34.24,0,0,0,41,360.16C51.77,368.6,64.93,373.88,77.75,378.41Z" style="opacity: 0.15; transform-origin: 123.995px 379.454px;" class="animable" id="elaayl4kewkx"></path>
    </g>
    <g id="freepik--shadow--inject-54">
      <polygon points="112.58 408.37 104.98 410.54 98.46 414.33 104.3 419.8 122.89 423.99 128.58 422.32 136.03 421.67 142.16 416.31 129.32 412.49 112.58 408.37" style="opacity: 0.15; transform-origin: 120.31px 416.18px;" class="animable" id="elxoxqr2vreq"></polygon>
    </g>
    <g id="freepik--shadow--inject-54">
      <polygon points="262.38 226.6 259.79 231.47 234.79 238.81 210.63 231 214.32 223.62 232.74 220.6 262.38 226.6" style="opacity: 0.15; transform-origin: 236.505px 229.705px;" class="animable" id="elfdmaee69nuh"></polygon>
    </g>
    <g id="freepik--shadow--inject-54">
      <polygon points="411.52 317.02 403.92 319.19 397.4 322.99 403.24 328.46 421.83 332.64 427.52 330.97 434.97 330.32 441.1 324.96 428.26 321.14 411.52 317.02" style="opacity: 0.15; transform-origin: 419.25px 324.83px;" class="animable" id="el8dne2oy81am"></polygon>
    </g>
  </g>
  <g id="freepik--Rocks--inject-54" class="animable" style="transform-origin: 272.205px 312.72px;">
    <g id="freepik--Rock--inject-54" class="animable" style="transform-origin: 421.675px 319.475px;">
      <polygon points="404.56 322.1 421.83 330.32 421.83 316.42 410.45 309.68 404.56 322.1" style="fill: rgb(38, 50, 56); transform-origin: 413.195px 320px;" id="elklmwmft3qpk" class="animable"></polygon>
      <polygon points="429.41 311.99 421.83 316.42 421.83 330.32 433.2 324.84 429.41 311.99" style="fill: rgb(55, 71, 79); transform-origin: 427.515px 321.155px;" id="elhmmhdi0wq2h" class="animable"></polygon>
      <path d="M429,313l3.39,11.5-9.92,4.78V316.8L429,313m.39-1-7.58,4.43v13.9l11.37-5.48L429.41,312Z" style="fill: rgb(38, 50, 56); transform-origin: 427.495px 321.165px;" id="elmgp9e1p2ehi" class="animable"></path>
      <polygon points="410.45 309.68 420.78 308.62 429.41 311.99 421.83 316.42 410.45 309.68" style="fill: rgb(69, 90, 100); transform-origin: 419.93px 312.52px;" id="eljc6cpdfepl" class="animable"></polygon>
      <polygon points="428.78 320.4 432.03 322.5 437.38 321.45 433.78 319.78 431.32 319.78 428.78 320.4" style="fill: rgb(69, 90, 100); transform-origin: 433.08px 321.14px;" id="eloiuaf25bfqh" class="animable"></polygon>
      <polygon points="431.15 329.53 432.03 322.5 437.38 321.45 438.79 324.96 431.15 329.53" style="fill: rgb(55, 71, 79); transform-origin: 434.97px 325.49px;" id="el1jv7p416sgt" class="animable"></polygon>
      <path d="M437,322.2l1,2.48-6,3.59.65-5.21,4.35-.86m.41-.75L432,322.5l-.88,7,7.64-4.57-1.41-3.51Z" style="fill: rgb(38, 50, 56); transform-origin: 434.94px 325.46px;" id="elualv26q29l" class="animable"></path>
      <polygon points="428.78 320.4 426.06 328.3 431.15 329.53 432.03 322.5 428.78 320.4" style="fill: rgb(38, 50, 56); transform-origin: 429.045px 324.965px;" id="elxad4x744fzc" class="animable"></polygon>
    </g>
    <g id="freepik--rock--inject-54" class="animable" style="transform-origin: 122.735px 410.82px;">
      <polygon points="105.62 413.45 122.89 421.67 122.89 407.76 111.51 401.02 105.62 413.45" style="fill: rgb(38, 50, 56); transform-origin: 114.255px 411.345px;" id="elvvbtga3ce7m" class="animable"></polygon>
      <polygon points="130.47 403.34 122.89 407.76 122.89 421.67 134.26 416.19 130.47 403.34" style="fill: rgb(55, 71, 79); transform-origin: 128.575px 412.505px;" id="eltu3wtq0g8qm" class="animable"></polygon>
      <path d="M130.08,404.33l3.39,11.51-9.92,4.78V408.14l6.53-3.81m.39-1-7.58,4.42v13.91l11.37-5.48-3.79-12.85Z" style="fill: rgb(38, 50, 56); transform-origin: 128.575px 412.495px;" id="el7btyniiv6bl" class="animable"></path>
      <polygon points="111.51 401.02 121.84 399.97 130.47 403.34 122.89 407.76 111.51 401.02" style="fill: rgb(69, 90, 100); transform-origin: 120.99px 403.865px;" id="elxacf9j90j8l" class="animable"></polygon>
      <polygon points="129.84 411.74 133.09 413.85 138.44 412.8 134.84 411.13 132.38 411.13 129.84 411.74" style="fill: rgb(69, 90, 100); transform-origin: 134.14px 412.49px;" id="el65ygtxwdx8k" class="animable"></polygon>
      <polygon points="132.21 420.88 133.09 413.85 138.44 412.8 139.85 416.31 132.21 420.88" style="fill: rgb(55, 71, 79); transform-origin: 136.03px 416.84px;" id="elskx7m4z8pg" class="animable"></polygon>
      <path d="M138,413.55l1,2.48-6,3.58.65-5.2,4.35-.86m.41-.75-5.35,1.05-.88,7,7.64-4.57-1.41-3.51Z" style="fill: rgb(38, 50, 56); transform-origin: 136px 416.81px;" id="ell3sgwfegsjb" class="animable"></path>
      <polygon points="129.84 411.74 127.11 419.65 132.21 420.88 133.09 413.85 129.84 411.74" style="fill: rgb(38, 50, 56); transform-origin: 130.1px 416.31px;" id="el7yesqg3sctb" class="animable"></polygon>
    </g>
    <g id="freepik--rock--inject-54" class="animable" style="transform-origin: 239.435px 219.08px;">
      <polygon points="219.75 226.45 234.79 234.39 259.12 228.1 255.69 218.8 247.07 212.72 241.13 211.07 234.79 203.77 228.45 204.41 219.75 226.45" style="fill: rgb(55, 71, 79); transform-origin: 239.435px 219.08px;" id="elsdz94xdgi1" class="animable"></polygon>
      <polygon points="247.07 212.72 243.97 220.18 233.96 221.66 222.79 218.75 236.46 225.77 252.27 223.11 255.69 218.8 247.07 212.72" style="fill: rgb(69, 90, 100); transform-origin: 239.24px 219.245px;" id="ell8jpfuz4a7k" class="animable"></polygon>
      <polygon points="234.79 234.39 236.46 225.77 252.27 223.11 255.69 218.8 259.12 228.1 234.79 234.39" style="fill: rgb(38, 50, 56); transform-origin: 246.955px 226.595px;" id="elpzjeherauod" class="animable"></polygon>
      <polygon points="234.79 203.77 228.45 204.41 234.22 208.81 241.13 211.07 234.79 203.77" style="fill: rgb(69, 90, 100); transform-origin: 234.79px 207.42px;" id="elorbyt6rxekf" class="animable"></polygon>
    </g>
  </g>
  <g id="freepik--Clouds--inject-54" class="animable" style="transform-origin: 224.611px 39.063px;">
    <path id="freepik--Cloud--inject-54" d="M269.87,40.9c0-4.07,4.47-6.91,9.53-7.39,6-.56,10.2,2.1,10.34,6.8,3.9-1.6,8-.58,7.7,3.71,1-1.17,4.81-1.14,6.17-.81a5.35,5.35,0,0,1,3.4,2.9,4,4,0,0,1,.35,2.19c2.28-.74,7.45-1.2,8.74.89,2.3,3.71-6.89,3.82-8.75,2.7-.39,2.89-10.27,3.37-12.67.7-1.87,1.88-4.55,2.3-7.45,2.47-4.89.29-7.89-1.36-11.7-3.31-4.15,3.51-11.32,3.58-15.06-.44-1,.89-3.58,1.17-5.68.67-1.38-.33-1.7-.92-1.7-.92a12.2,12.2,0,0,1-2.54.76c-2.71.57-7.76,0-5.64-2.47.72-.83,3.36-1.36,4.48-1.1,1.18-2.33,5.93-4.53,8.65-2.56.11-2.82,2.68-5,6.31-5.59C265.56,39.92,268.48,39.75,269.87,40.9Z" style="fill: rgb(235, 235, 235); transform-origin: 280.435px 44.2647px;" class="animable"></path>
    <path id="freepik--cloud--inject-54" d="M158.86,30.66c0-4.17,4.58-7.07,9.75-7.55,6.1-.58,10.43,2.14,10.57,6.94,4-1.63,8.2-.58,7.88,3.8,1-1.2,4.92-1.16,6.31-.83a5.45,5.45,0,0,1,3.48,3,4.09,4.09,0,0,1,.36,2.25c2.32-.76,7.61-1.23,8.93.9,2.36,3.8-7,3.92-8.94,2.77-.4,3-10.51,3.44-13,.71-1.91,1.93-4.66,2.35-7.62,2.53-5,.3-8.07-1.4-12-3.39-4.24,3.6-11.57,3.66-15.4-.45-1,.92-3.66,1.2-5.81.69-1.41-.34-1.74-.94-1.74-.94a12.49,12.49,0,0,1-2.59.78c-2.77.58-7.93,0-5.77-2.53.74-.85,3.44-1.39,4.58-1.12,1.21-2.38,6.07-4.64,8.85-2.63.11-2.88,2.74-5.13,6.45-5.7C154.46,29.65,157.45,29.49,158.86,30.66Z" style="fill: rgb(235, 235, 235); transform-origin: 169.637px 34.1236px;" class="animable"></path>
  </g>
  <g id="freepik--Sun--inject-54" class="animable" style="transform-origin: 364.39px 38.52px;">
    <g id="freepik--sun--inject-54">
      <circle cx="364.39" cy="38.52" r="14.3" style="fill: rgb(255, 189, 167); transform-origin: 364.39px 38.52px; transform: rotate(-9.22deg);" class="animable" id="eldk1jffkhb7"></circle>
    </g>
  </g>
  <g id="freepik--character-2--inject-54" class="animable" style="transform-origin: 345.691px 248.157px;">
    <g id="freepik--Character--inject-54" class="animable" style="transform-origin: 356.935px 248.157px;">
      <g id="freepik--Bottom--inject-54" class="animable" style="transform-origin: 335.894px 310.273px;">
        <path d="M253.58,326.73a10.23,10.23,0,0,1,.33-3.2c.71-2.62,1.91-5.76,3.76-7.72a55.15,55.15,0,0,0,6.14-6.92,38.54,38.54,0,0,0,4.35-8.65c.85-2.43,1.39-5.24,2.85-7.4,4.42-6.58,12.18-4,16.87-3.68l18.93-7.82.89,23.11s-9.52,1.12-12.38,1.86c-3.8,1-7.94,4.51-10.7,7.08-3.51,3.27-7.68,6.55-8.85,11.39a38.32,38.32,0,0,0-.72,8.08,7.94,7.94,0,0,1-.31,2.28c-.71,2-2.88,3-4.85,3.83-3.18,1.32-6.93,2.6-9.9.86a10.64,10.64,0,0,1-3.64-4.53A21.59,21.59,0,0,1,253.58,326.73Z" style="fill: rgb(200, 133, 106); transform-origin: 280.632px 311.007px;" id="el5ew7pwtfbv7" class="animable"></path>
        <path d="M269.6,345.08a11,11,0,0,1-6.46-1.07,21.52,21.52,0,0,1-5.28-3.46c-5-4.3-7.68-10.52-7.12-15.25.51-4.34,5.8-12.51,7.25-14.81a25.28,25.28,0,0,0,3-10.16c.12-1.63,2.23-11.06,3.24-11.93l6.74-.26s-3.48,4.43-3.89,7.69-3.85,17-5.81,20.33-2.68,10-.65,14.9,12.06,11.49,12.06,11.49Z" style="fill: rgb(38, 50, 56); transform-origin: 261.673px 316.662px;" id="eldv1fg9no5z6" class="animable"></path>
        <path d="M275.94,326.25l-4.07-5.63s2.44-13.27,5.25-18,5.07-4.72,5.5-3.32c1.34,4.42,8,9.1,9.6,8.31.61,2-2.07,1.41-5.15,4.51C284.18,315,278.68,319.28,275.94,326.25Z" style="fill: rgb(55, 71, 79); transform-origin: 282.089px 312.367px;" id="elh635q4ekp9j" class="animable"></path>
        <path d="M262.09,307.25a25.72,25.72,0,0,1-3.28,6.49c-3.29,4.92-6,11-4.4,17a14.55,14.55,0,0,0,3.92,6.34,37.72,37.72,0,0,0,6,4.6c1.92,1.26,5.8,2.15,6.43,1.94a6.94,6.94,0,0,0,4.33-4.52c.78-3.52.75-7.19,1.5-10.72a20.68,20.68,0,0,1,1.36-5.26,29,29,0,0,1,3.54-4.85,71.65,71.65,0,0,1,5.6-6.21c-2.28,2.21-9.18,7.89-10.95,12l-2.93-4a94.71,94.71,0,0,1,2.66-10.59,27.19,27.19,0,0,1,3.51-6.79,4.5,4.5,0,0,0,.94-3.57c-.26-1.23-1.19-2.21-1.54-3.44a4.07,4.07,0,0,1,.26-3.21,5.54,5.54,0,0,1,3.05-2.07,37.29,37.29,0,0,1,5.81-1.32.88.88,0,0,0-.67-1.17c-.9-.16-1.8-.25-2.7-.34l-6.08-.58a36.47,36.47,0,0,0-5.63-.05,8.09,8.09,0,0,0-2.59.43,6.79,6.79,0,0,0-2.95,2.84,28.63,28.63,0,0,0-3.55,8.55C263,301.62,262.92,304.53,262.09,307.25Z" style="fill: rgb(69, 90, 100); transform-origin: 270.946px 315.248px;" id="elihtodim8j38" class="animable"></path>
        <path d="M273.38,287.09c.49,1.42-1.5,4.9-3.88,6.61s-7.55,4-8.51,6.63a22.69,22.69,0,0,1,2-11.1c.7-1.48,1.83-1.85,3.09-2.3S273.23,286.37,273.38,287.09Z" style="fill: #008CFF; transform-origin: 267.192px 293.451px;" id="elowsnxgfbi9" class="animable"></path>
        <path d="M269.66,345c1.42-1.68,2.23-3.5,1-4.13s-7.16-3.06-8.91-2.83-4,2.7-4,2.7a17.22,17.22,0,0,0,5.82,3.86C267.43,346.15,269.66,345,269.66,345Z" style="fill: #008CFF; transform-origin: 264.507px 341.718px;" id="elfxarnrx4eot" class="animable"></path>
        <path d="M277.54,299.21a.86.86,0,1,0,.94,1.43.88.88,0,0,0,.25-1.19A.87.87,0,0,0,277.54,299.21Z" style="fill: #008CFF; transform-origin: 277.97px 299.952px;" id="el032zuuyq6g87" class="animable"></path>
        <path d="M272.34,316.91a1.63,1.63,0,0,1,1,.39,10.56,10.56,0,0,1,.87.62,10.82,10.82,0,0,1,1.49,1.46,11.53,11.53,0,0,1,1.2,1.69,5.37,5.37,0,0,1,.8,2.06c0,.24-.43.22-.52.06-.35-.61-.6-1.27-1-1.88a11,11,0,0,0-1.12-1.58,11.67,11.67,0,0,0-1.33-1.3c-.23-.19-.47-.38-.72-.55a4.48,4.48,0,0,1-.82-.61A.22.22,0,0,1,272.34,316.91Z" style="fill: #008CFF; transform-origin: 274.919px 320.11px;" id="elgxuln51v435" class="animable"></path>
        <path d="M272.39,316.86a5.37,5.37,0,0,1,2,0,10.21,10.21,0,0,1,2.08.46,10.89,10.89,0,0,1,2,.93,6.73,6.73,0,0,1,1,.66,3.24,3.24,0,0,1,.83.82c.09.14-.17.22-.25.17-.61-.35-1.17-.8-1.78-1.15a9.29,9.29,0,0,0-1.86-.83,8.92,8.92,0,0,0-1.81-.41c-.3,0-.61-.05-.91-.06s-.62.05-.93,0a.52.52,0,0,1-.44-.26A.24.24,0,0,1,272.39,316.86Z" style="fill: #008CFF; transform-origin: 276.3px 318.34px;" id="elih0kgvyjkt8" class="animable"></path>
        <path d="M274.54,313a17.7,17.7,0,0,1,3.18,9.6c0,.31-.57.32-.57,0a18.42,18.42,0,0,0-3.17-9.43C273.75,312.88,274.35,312.76,274.54,313Z" style="fill: #008CFF; transform-origin: 275.824px 317.854px;" id="el5cz7gcn7au" class="animable"></path>
        <path d="M274.08,313a6.3,6.3,0,0,1,2.28.16,10.9,10.9,0,0,1,2.34.72,12.05,12.05,0,0,1,2.18,1.23,9,9,0,0,1,1,.83,3.86,3.86,0,0,1,.87,1c.08.16-.22.23-.32.16-.66-.45-1.25-1-1.91-1.47a11.24,11.24,0,0,0-2-1.11,9.93,9.93,0,0,0-2-.63,9.13,9.13,0,0,0-1-.15c-.36,0-.72,0-1.07,0a.54.54,0,0,1-.47-.33A.26.26,0,0,1,274.08,313Z" style="fill: #008CFF; transform-origin: 278.34px 315.044px;" id="elalgzzt8p4k" class="animable"></path>
        <path d="M275.72,309.48a8.13,8.13,0,0,1,2.73.22,13.31,13.31,0,0,1,2.73.86,13,13,0,0,1,2.47,1.44,9.49,9.49,0,0,1,1.14,1,3.88,3.88,0,0,1,.92,1.17c.07.18-.29.25-.4.18-.74-.53-1.39-1.18-2.13-1.71a12,12,0,0,0-2.33-1.29,11.57,11.57,0,0,0-2.36-.75,10.46,10.46,0,0,0-1.23-.19c-.42,0-.86,0-1.28-.08a.6.6,0,0,1-.53-.38A.32.32,0,0,1,275.72,309.48Z" style="fill: #008CFF; transform-origin: 280.566px 311.912px;" id="el9l8rvux1rxr" class="animable"></path>
        <path d="M276.18,310.21c2.25,2.58,3.3,6,4.16,9.21.08.3-.48.37-.57.11-1-3.2-2-6.39-4.13-9.06C275.38,310.14,276,310,276.18,310.21Z" style="fill: #008CFF; transform-origin: 277.962px 314.9px;" id="elqjv7cw0e3xf" class="animable"></path>
        <path d="M277.52,305.78c2.74,3.23,5.11,7.71,5.54,11.07.05.35-.54.36-.6,0A25.6,25.6,0,0,0,277,306C276.63,305.59,277.25,305.46,277.52,305.78Z" style="fill: #008CFF; transform-origin: 279.974px 311.359px;" id="el1khjcxppot1" class="animable"></path>
        <path d="M380.45,214.72s2.45,38.66-4.93,64.67c-4.6,16.2-22.82,17.73-26.71,18.57-17.26,3.72-49.28,7.58-49.28,7.58s-8.44-10.05-4-19.53c14.36-7.38,30.74-18.67,43.4-18.24l22.93-54.86Z" style="fill: rgb(55, 71, 79); transform-origin: 337.54px 259.225px;" id="eltm6eji1hk1t" class="animable"></path>
        <path d="M369.2,247.09s7.37-5,8.31-17.22l-25.63,6.87h0l-13,31h0c-.52,0-1,0-1.59,0l-.39,0c-.53,0-1.07.07-1.61.14h0c-.57.07-1.14.16-1.72.27l-.33.06c-.57.11-1.14.23-1.72.37a57.17,57.17,0,0,0-9.36,3.3l16,28h0l2.65-.47.31-.05,2.6-.48.06,0,2.25-.43.55-.12,2.19-.45h0c3.89-.84,22.11-2.37,26.71-18.57q.76-2.75,1.41-5.64Z" style="fill: rgb(38, 50, 56); transform-origin: 349.835px 264.875px;" id="elp10apl8qxdn" class="animable"></path>
        <path d="M392.39,379.25c-1.57.11-1.64-1.95-2.3-6.77-.72-5.3-3.51-26.07-3.51-26.07l-25,9.87s6.49,17.09,8.53,22c2.27,5.48,5.44,13,6,17.26s.76,16.15,6.1,18.29,10.31-.31,13.85-2.62,7.61-10.37,11.52-14.46,7.2-6.36,10.21-10.58,2.79-14.67-1.29-16.84-9.88.31-13.29,2.36S395.29,379.05,392.39,379.25Z" style="fill: rgb(200, 133, 106); transform-origin: 390.707px 380.531px;" id="elquwsqfwjl6" class="animable"></path>
        <path d="M325.86,204.35c-9,10.41-13.16,19.39-13.57,28.5-.44,9.73,2.84,18.71,6.7,25.92,7.48,14,13.53,22.3,30.12,54,0,7.12.19,14.2,5.39,27.56,6.47,16.6,14.18,34.43,14.18,34.43s5.78-10.45,20.46-8.91c-.77-8.18-5.65-47.11-8-58.62-3-14.33-15.74-61.47-15.74-61.47s14.88-9.68,15.09-31.05Z" style="fill: rgb(55, 71, 79); transform-origin: 350.695px 289.555px;" id="elnn3k7ezvnvk" class="animable"></path>
        <path d="M364.92,334.33c-5.82-17.8-3.31-22.49-5.86-28.9S338.8,267.65,335.31,259c-3.32-8.25-12-26.57,1-46.44l-5.52-3.07C316.86,230,321,247.55,329,263.21c8.49,16.53,20.89,40.37,23.36,44.73s-.49,11.29,5.32,28.57c2.74,8.12,9.23,26.38,12.86,35.82a19.83,19.83,0,0,1,6.53-4.73C373.06,357.14,366.5,339.18,364.92,334.33Z" style="fill: #008CFF; transform-origin: 349.359px 290.91px;" id="eldjpadq4n1mi" class="animable"></path>
        <path d="M417,368.83c-2.39-2.27-6.18-2.23-11.22.28a29.73,29.73,0,0,0-8.94,6.49c-.78.93-1.54,1.62-2.84,1.2a8,8,0,0,1-1.21-.6c-2.82-1.43-6.22-.2-9,1.26a1.82,1.82,0,0,0-.75.59c-.48.78.35,1.7,1.11,2.21a8,8,0,0,1,1.94,1.86l-2.13-.52a3,3,0,0,0-1.32-.12A2.79,2.79,0,0,0,381,383.1a17.34,17.34,0,0,0-1.2,2.93,5.8,5.8,0,0,1-1.25,2.7,2.72,2.72,0,0,1-2.7.57,3.4,3.4,0,0,1-2.13-2c-.07.07-.14.13-.22.55a1.71,1.71,0,0,0,0,.81c.18.76.7,1.39.95,2.12a29,29,0,0,1,1.22,7c.55,6.24,1.27,9.65,2.41,12.8l26.26-25.38-1.74-2.22C408.44,379.36,417,368.83,417,368.83Z" style="fill: rgb(69, 90, 100); transform-origin: 395.226px 388.878px;" id="elwcl8clpmjmo" class="animable"></path>
        <path d="M420.64,373.21a5.11,5.11,0,0,0-1.92-3.41c-.33-.22-1.49-.83-1.71-1-3-1.92-8.28,2.21-12.76,6.27-5.22,4.74-10,14.23-14.26,20.67s-9.46,8.9-11.19,11.74a4.67,4.67,0,0,0,.5,5.75c.27.3,1.26,1.22,1.46,1.41,1.38,1.33,3.83,1.87,6.73,1.31,5.85-1.13,10.05-3,14.89-9.87s7.39-10.46,13-14.88S421.85,378.76,420.64,373.21Z" style="fill: rgb(55, 71, 79); transform-origin: 399.578px 392.242px;" id="el31nh73nia0l" class="animable"></path>
        <path d="M420.64,373.21c-1.69-7.77-8.88-2.38-14.67,2.87-5.22,4.73-10.05,14.23-14.27,20.66s-9.59,8.83-11.19,11.74c-2.91,5.29,1.13,8.62,7,7.5s10.05-3,14.89-9.87,7.39-10.46,13-14.88S421.85,378.76,420.64,373.21Z" style="fill: rgb(38, 50, 56); transform-origin: 400.332px 392.756px;" id="elyatbrhxtjxn" class="animable"></path>
        <path d="M380.88,414.79c-3.75-1.54-4.48-10.37-4.75-12.63s1.67-4.25,5.18-3a21.4,21.4,0,0,0,7.83.9,39,39,0,0,1-5.14,5.15C381.68,407.17,378,412,380.88,414.79Z" style="fill: #008CFF; transform-origin: 382.623px 406.782px;" id="elai65inpgk6u" class="animable"></path>
        <path d="M408.38,374c1.18-1.43-.47-3.39-.52-4.44s1-2.13,3.92-2.48,3.79-.26,5.23.7a9.85,9.85,0,0,1,2.49,2.76,4.43,4.43,0,0,0-3.58-.85C412,370.28,408.38,374,408.38,374Z" style="fill: #008CFF; transform-origin: 413.679px 370.446px;" id="eljpe8sa3ksvs" class="animable"></path>
        <path d="M384.51,384.58a1.16,1.16,0,1,1-1.16-1.16A1.16,1.16,0,0,1,384.51,384.58Z" style="fill: #008CFF; transform-origin: 383.35px 384.58px;" id="elr0whbo27k7a" class="animable"></path>
      </g>
      <g id="freepik--Top--inject-54" class="animable" style="transform-origin: 364.786px 165.562px;">
        <path d="M325.06,93.84c-4.33,3.06-5.25,6.36-7.63,10.86-1,2-2.44,4-4.43,5.06-7.29,3.72-16.46.24-24.14,3.08a30.76,30.76,0,0,0-8.09,5.1,23.09,23.09,0,0,1,13.12-.61c-3.08-.82-6.35.22-9.2,1.65s-5.51,3.26-8.56,4.2a15.59,15.59,0,0,1-9.76-.23c5.38,5.62,13.09,9.81,20.73,8.39,2.39-.44,4.65-1.41,7-1.86,6.67-1.27,13.56,1.6,20.28.63,4.31-.62,9.31-2.25,12.44-5.27s4.72-6.28,6.45-11.39c1.1-3.26,1.87-7.57,4.55-7.87,1.31-.15,1.65-3.08,2.57-4,2.21-2.31,3.13-6.66-.26-8.22C333.54,90.28,328.3,91.56,325.06,93.84Z" style="fill: rgb(38, 50, 56); transform-origin: 304.369px 111.578px;" id="elnygzh9eqjq" class="animable"></path>
        <path d="M461.87,171c.24-.85,0-1.58.26-2.39s.8-1.42,1-2.25c.29-1.27-.33-1.88-1.15-3.11a3,3,0,0,1-.57-1.63,9.22,9.22,0,0,1,.43-1.66,5,5,0,0,0-1.85-5c.29-1.77.44-2.65.75-4.4a1.16,1.16,0,0,0-.12-.82.55.55,0,0,0-.47-.21,3.25,3.25,0,0,0-2.38.62,8.86,8.86,0,0,0-2.89,3.62,91,91,0,0,1-5.07,7.77c-.51.65-3.68,5.2-4.51,2.5a2.9,2.9,0,0,1,.16-1.56,14.43,14.43,0,0,0,.51-4.85,4.85,4.85,0,0,0-.43-1.92c-.35-.69-1.37-1.59-2.2-1.08s-1.07,2.19-1.39,2.92a59.53,59.53,0,0,1-3.27,6.54,25.22,25.22,0,0,0-2.85,6.15,14.59,14.59,0,0,1-.81,1.91,13.67,13.67,0,0,1-5.6,5.38c-3.71,2.14-19,10.74-19,10.74s-1.78-3-8.87-18.71c-5-11.16-12.37-26.65-23-26.65,0,0-.88,18.94-1.33,32.06,5.63,9.82,14.62,25.72,19.21,31.68,5.37,7,9.18,9.66,14.9,6.79,10-5,18.68-14.67,24.87-20.11a74.32,74.32,0,0,1,11.63-8.54,50.19,50.19,0,0,0,7.19-4.93C457,178.24,461.2,173.42,461.87,171Z" style="fill: rgb(200, 133, 106); transform-origin: 420.211px 178.744px;" id="elqofwo9641f9" class="animable"></path>
        <path d="M447.22,172.11a12.23,12.23,0,0,0,.36-2.08,4.62,4.62,0,0,0-.08-2c-.07-.2-.43-.46-.55-.15a9.19,9.19,0,0,0-.31,1.9,17.94,17.94,0,0,1-.37,1.77,12.55,12.55,0,0,1-1.44,3.34,9.77,9.77,0,0,1-2.32,2.6,19.54,19.54,0,0,1-2.76,1.71c-.08,0-.12.33,0,.32,2.41-.11,4.55-2,5.86-3.93A11.68,11.68,0,0,0,447.22,172.11Z" style="fill: rgb(175, 97, 82); transform-origin: 443.664px 173.628px;" id="elwk2sui1vdug" class="animable"></path>
        <path d="M410.38,188.34a19.47,19.47,0,0,0-7.54,8.4,10.78,10.78,0,0,1,2.57-6.31c2.61-3.25,4-3.93,4-3.93Z" style="fill: rgb(175, 97, 82); transform-origin: 406.61px 191.62px;" id="elpl9un0d9jn" class="animable"></path>
        <path d="M432.26,175.61c-.62-.78-4.58,1.21-4.85,2.25s-1.3,3.43,2.63,9.5,6.31,6.1,7.45,5.55a24,24,0,0,0,4-3.15.7.7,0,0,0,.05-.72l-1,.7a15.18,15.18,0,0,1-6.12-5.81c-2.83-4.44-2.94-7.66-2.94-7.66Z" style="fill: rgb(55, 71, 79); transform-origin: 434.352px 184.282px;" id="elzjttwc824sa" class="animable"></path>
        <path d="M327.75,194.43c.29,3.25.82,6.65-1.89,9.92,2.26,8.84,21.52,14,34.17,14.13,17.39.21,20.42-3.76,20.42-3.76l1.06-11Z" style="fill: rgb(200, 133, 106); transform-origin: 353.685px 206.459px;" id="el8aq5cgfe5tu" class="animable"></path>
        <path d="M394.54,171.66c-4.58-15.32-16-28.68-16-28.68-2.68-.49-22.12-3-22.12-3s-12.43.84-19.58,1.3c-3.67,2.21-6.53,5.66-9.59,12.1-1.29,2.74-3.94,13.2-3.25,17.61,1.45,9.26,3.9,26,3.9,26,8.61,14.14,44.84,14.86,53.37,9.07L383,193.39C394.25,190.26,396.78,179.14,394.54,171.66Z" style="fill: rgb(240, 240, 240); transform-origin: 359.586px 174.722px;" id="eluvxhd138x" class="animable"></path>
        <path d="M385.27,156.91c0,.37,7.37,12.43,6.5,19.51-16,6.8-42.59,4.13-42.59,4.13l-3.71-20.85C352.22,160.35,374.32,161.45,385.27,156.91Z" style="fill: rgb(255, 255, 255); transform-origin: 368.656px 168.988px;" id="el132lw6f5397k" class="animable"></path>
        <path d="M361.35,181.53c-7,0-12.1-.5-12.21-.51a.46.46,0,0,1-.42-.39L345,159.78a.46.46,0,0,1,.11-.4.47.47,0,0,1,.4-.15c7.44.71,29.05,1.6,39.57-2.76a.48.48,0,0,1,.45.05.53.53,0,0,1,.2.29c.05.13.29.58.54,1.05,1.83,3.45,6.7,12.62,6,18.61a.49.49,0,0,1-.29.39C383,180.69,370.5,181.53,361.35,181.53Zm-11.76-1.42c3.2.28,27,2.09,41.74-4,.51-5.72-4.3-14.77-5.9-17.78-.18-.35-.31-.6-.41-.78-11.92,4.67-34.89,3-39,2.7Z" style="fill: rgb(224, 224, 224); transform-origin: 368.665px 168.983px;" id="elyq6u9s7z9fm" class="animable"></path>
        <path d="M376.87,170a6.6,6.6,0,0,0-1.68-1.29,7.79,7.79,0,0,0-2.06-.75,8.31,8.31,0,0,0-2.29-.14l1.11-3.42a.19.19,0,0,0,0-.09.49.49,0,0,0,0-.15.71.71,0,0,0-.3-.32.72.72,0,0,0-.44-.11l-1.77.16c-.18,0-.3.07-.35.16a1.33,1.33,0,0,0-.11.26l-1.76,5.15a6.9,6.9,0,0,0-.34,1.48,3.65,3.65,0,0,0,.31,1.82,5.7,5.7,0,0,0,1.15,1.8,6.67,6.67,0,0,0,1.7,1.33,7.88,7.88,0,0,0,2.1.77,7.62,7.62,0,0,0,2.34.12,5.81,5.81,0,0,0,2.06-.53,3.39,3.39,0,0,0,1.33-1.09,2.85,2.85,0,0,0,.51-1.53,4.15,4.15,0,0,0-.38-1.87A5.86,5.86,0,0,0,376.87,170Zm-1.6,3.65a2.11,2.11,0,0,1-1.73.84,3.67,3.67,0,0,1-2.28-.46,3.2,3.2,0,0,1-1.36-1.52,1.67,1.67,0,0,1,.07-1.62,2.15,2.15,0,0,1,1.73-.81,3.75,3.75,0,0,1,2.26.44,3.12,3.12,0,0,1,1.35,1.49A1.72,1.72,0,0,1,375.27,173.69Zm-11.37-3a6.52,6.52,0,0,0-1.57-1.29,7,7,0,0,0-1.94-.75,8.31,8.31,0,0,0-2.18-.18c-.23,0-.52,0-.87.08a3.09,3.09,0,0,0-1,.31l-.75-2.49,5.64-.22a.35.35,0,0,0,.31-.17.38.38,0,0,0,0-.36l-.51-1.34a.79.79,0,0,0-.3-.36.67.67,0,0,0-.43-.14l-7.69.2a.37.37,0,0,0-.34.17.39.39,0,0,0,0,.38l2,6.69a.76.76,0,0,0,.31.36.81.81,0,0,0,.46.13l1.9-.13a.93.93,0,0,0,.43-.11l.33-.23a1.66,1.66,0,0,1,.5-.24,3.64,3.64,0,0,1,.92-.14,3.59,3.59,0,0,1,2,.47,2.67,2.67,0,0,1,1.23,1.35,1.69,1.69,0,0,1-.07,1.64,2.06,2.06,0,0,1-1.57.73,6.63,6.63,0,0,1-.89,0,3,3,0,0,1-.85-.15,3.28,3.28,0,0,1-.77-.39,2.71,2.71,0,0,1-.67-.68,1,1,0,0,0-.35-.32.81.81,0,0,0-.42-.1l-1.67.13a.47.47,0,0,0-.35.17.35.35,0,0,0,0,.39,5.07,5.07,0,0,0,.95,1.41,5.85,5.85,0,0,0,1.49,1.11,6.6,6.6,0,0,0,2,.67,8.62,8.62,0,0,0,2.46.08,6.5,6.5,0,0,0,1.87-.44,3,3,0,0,0,1.29-.94,2.7,2.7,0,0,0,.52-1.46,4.69,4.69,0,0,0-.38-2A5.77,5.77,0,0,0,363.9,170.68Zm23.67,2.92-5.06-11.67a.71.71,0,0,0-.3-.32.8.8,0,0,0-.44-.11l-1.53.14a.55.55,0,0,0-.32.13l-.23.24-3,3.45a.34.34,0,0,0-.07.34.66.66,0,0,0,.26.35l1.38,1a.89.89,0,0,0,.45.15.41.41,0,0,0,.34-.13l1.95-2.26,3.85,9a.75.75,0,0,0,.31.33.67.67,0,0,0,.44.11l1.62-.15a.35.35,0,0,0,.31-.18A.36.36,0,0,0,387.57,173.6Z" style="fill: #008CFF; transform-origin: 369.915px 169.426px;" id="eldek33rn3hb5" class="animable"></path>
        <path d="M366.72,192.6a20.46,20.46,0,0,1-18.07,0c-9.18-4.7-9.74-13.42-8.63-16.67,0,0-5.31,13.74,6.1,19.74C360.41,203.13,366.72,192.6,366.72,192.6Z" style="fill: rgb(224, 224, 224); transform-origin: 352.753px 187.136px;" id="el6p94wovzmbf" class="animable"></path>
        <path d="M340.17,93.33c-5.35,1.92-5.93,13.06-1,13.43C346.59,107.32,348.29,89.87,340.17,93.33Z" style="fill: #008CFF; transform-origin: 340.667px 99.8244px;" id="elwuwrowgfsc" class="animable"></path>
        <g id="freepik--Head--inject-54" class="animable" style="transform-origin: 363.388px 118.289px;">
          <path d="M387.57,93c-21.75-32.73-72.31,3.48-38,35.53l4.08.28c1.56-3.37,5-2.48,8.22-3.06,3.36-2.72,6.07-5.34,10.88-5.49,7.52-.66,17.37-7.43,13-15.69C389.33,102,389.55,96.68,387.57,93Z" style="fill: rgb(38, 50, 56); transform-origin: 363.388px 104.463px;" id="elbl7xdmls1d" class="animable"></path>
          <path d="M349.28,136.18c.06-2.14,0-12.16,0-12.16-.1.8-4.69,2.92-8.09-1.27s-2.7-8.37-.56-11.14c2.36-3,7.49-2.79,9.45,2.3,1.54,0,4-.18,3.43-8.18.28-9.63,9.8-17.36,17.5-10.5,3.19-5.32,9.64-3,11.91,2.28,1.24,3.31,1.65,4.45.85,10.65-.14,1,1.09,3.3.86,8-.57,11.53-3.68,14.9-7.14,17.13-2.06,1.33-4.36,2-8.62,1.56v2.79h0c0,1.79-.16,3.22,1.5,3.87a24.78,24.78,0,0,0,3.71.85s8.08,12.39-7.7,14c-15.21,1.57-21.79-15.61-21.79-15.61a8.2,8.2,0,0,0,3.1-.52C348.77,139.48,349.23,138.31,349.28,136.18Z" style="fill: rgb(200, 133, 106); transform-origin: 361.745px 124.337px;" id="elsdxivi2531" class="animable"></path>
          <path d="M347.43,116.7a2.36,2.36,0,0,1-.95,2,2.52,2.52,0,0,1-1.17.48c-.25,0-.15.42.13,1.6l.17.76a.75.75,0,0,1-.48,1h0a.76.76,0,0,1-1-.49l-1.39-4.32a2.51,2.51,0,0,1,1.51-3.18A2.41,2.41,0,0,1,347.43,116.7Z" style="fill: rgb(250, 250, 250); transform-origin: 345.017px 118.506px;" id="elz5b1etahmnk" class="animable"></path>
          <path d="M364.73,121l5.95,2a3.1,3.1,0,0,1-3.93,2.08A3.29,3.29,0,0,1,364.73,121Z" style="fill: rgb(175, 97, 82); transform-origin: 367.629px 123.115px;" id="el4qb2cuhz30p" class="animable"></path>
          <path d="M365.08,122.41a3.45,3.45,0,0,1,3.41,2.75,3,3,0,0,1-1.74,0,3.23,3.23,0,0,1-2.13-2.65A2.31,2.31,0,0,1,365.08,122.41Z" style="fill: rgb(242, 143, 143); transform-origin: 366.555px 123.849px;" id="elz86ld6zpz08" class="animable"></path>
          <path d="M381.88,104.44l-4.22-2.34a2.31,2.31,0,0,1,3.21-1A2.53,2.53,0,0,1,381.88,104.44Z" style="fill: rgb(38, 50, 56); transform-origin: 379.906px 102.621px;" id="elztqho8dt9nr" class="animable"></path>
          <path d="M360.29,104.67l4.22-2.47a2.34,2.34,0,0,0-3.28-.93A2.57,2.57,0,0,0,360.29,104.67Z" style="fill: rgb(38, 50, 56); transform-origin: 362.251px 102.804px;" id="elbxvu8jjwmi8" class="animable"></path>
          <path d="M377,109.3a2.07,2.07,0,0,0,1.81,2.23,1.94,1.94,0,0,0,2.19-1.74,2.08,2.08,0,0,0-1.81-2.23A1.94,1.94,0,0,0,377,109.3Z" style="fill: rgb(38, 50, 56); transform-origin: 379px 109.545px;" id="el1fa32z5rma4" class="animable"></path>
          <path d="M362.39,109.4a2.08,2.08,0,0,0,1.82,2.23,2,2,0,0,0,2.19-1.74,2.06,2.06,0,0,0-1.82-2.22A1.94,1.94,0,0,0,362.39,109.4Z" style="fill: rgb(38, 50, 56); transform-origin: 364.395px 109.647px;" id="els8zrooojh7m" class="animable"></path>
          <polygon points="378.2 115.92 371.79 118.84 370.71 106.57 378.2 115.92" style="fill: rgb(175, 97, 82); transform-origin: 374.455px 112.705px;" id="elj2kd0yihjc" class="animable"></polygon>
          <path d="M368.86,134.8c-7.63-.91-14.93-3.14-16.72-7.85a7.83,7.83,0,0,0,4.24,6.6,27.75,27.75,0,0,0,12.47,3.5Z" style="fill: rgb(175, 97, 82); transform-origin: 360.5px 132px;" id="eliv4qnvqk0w" class="animable"></path>
        </g>
        <g id="freepik--Arm--inject-54" class="animable" style="transform-origin: 307.378px 196.129px;">
          <path d="M308.77,237.44c-1.81-2.91-3.12-5-3.2-6.11,0-1.75,3.39,2.13,4.74,2.79a4.84,4.84,0,0,0,3.55.55c.79-.13,1.91-1.14,1.68-1.91-.05-.17-.19-.24-.32-.35a43.75,43.75,0,0,1-5.05-5.76,55.63,55.63,0,0,0-4.9-5.72c-1.39-1.38-3.82-3.33-4.28-6.52-1.5-10.47-1.47-16.07-2.31-26.31,8.2-4.71,20.46-11.95,24.07-14,5-2.86,8.63-6.31,10.8-10.85,2.9-6.05,5-18.34,3.49-22-15.42,1-19.73,5.68-27.69,11.32-4.48,3.18-7.4,5.19-14.5,10.74-3.56,2.78-7.12,4.93-13.53,10.52-2.12,1.85-5,4.6-3.84,10.68a160.06,160.06,0,0,0,3.94,17c1.26,4.45,6.07,23.46,6.53,26.12a52.21,52.21,0,0,0,2.24,8.45c.86,2.3,4.28,7.68,6.19,9.06.67.49,1.41.52,2,1s1,1.19,1.7,1.63c1,.68,1.78.33,3.16,0a2.6,2.6,0,0,1,1.63,0,8,8,0,0,1,1.34.93,4.75,4.75,0,0,0,5.06,0l3.69,2.12a1,1,0,0,0,.77.17.55.55,0,0,0,.34-.35,3.11,3.11,0,0,0,.23-2.34,8.42,8.42,0,0,0-2.28-3.77A86.38,86.38,0,0,1,308.77,237.44Z" style="fill: rgb(200, 133, 106); transform-origin: 307.378px 196.129px;" id="elg6733puet4d" class="animable"></path>
        </g>
        <path d="M308.89,172.55a22.4,22.4,0,0,1-5-16.11c-2.37,1.72-5,3.72-9,6.85l-.4.3c-.11,5.41,2.82,11,6.18,15.83a15.94,15.94,0,0,0,4.83,4.75l10-5.85A22.69,22.69,0,0,1,308.89,172.55Z" style="fill: rgb(55, 71, 79); transform-origin: 304.994px 170.305px;" id="elu53uk4tnl6" class="animable"></path>
        <g id="freepik--Mobile--inject-54" class="animable" style="transform-origin: 300.468px 164.267px;">
          <path d="M282.86,165.23l24.71-15.49a2.13,2.13,0,0,1,1.76-.15,2.61,2.61,0,0,1,1.54.86L318.44,162a1,1,0,0,1-.3,1.34l-24.71,15.5a2.31,2.31,0,0,1-1.64.12,2.9,2.9,0,0,1-1.65-.83l-7.58-11.57A.85.85,0,0,1,282.86,165.23Z" style="fill: rgb(55, 71, 79); transform-origin: 300.468px 164.262px;" id="el3xlbbga3ud5" class="animable"></path>
          <path d="M283.48,165.88l7.79,11.89,24.82-15.56,2.49.53a1,1,0,0,1-.44.61l-24.71,15.5a2.31,2.31,0,0,1-1.64.12,2.9,2.9,0,0,1-1.65-.83l-7.58-11.57a.87.87,0,0,1-.12-.91h.07Z" style="fill: rgb(38, 50, 56); transform-origin: 300.471px 170.639px;" id="el5ir0i3edi8p" class="animable"></path>
          <path d="M307.67,149.94,283,165.41a.77.77,0,0,0-.24,1.07l7.39,11.28a1.09,1.09,0,0,0,1.48.32l24.51-15.37a.67.67,0,0,0,.21-.94l-7.6-11.59A.8.8,0,0,0,307.67,149.94Z" style="fill: rgb(69, 90, 100); transform-origin: 299.549px 164.034px;" id="elavixe5remgi" class="animable"></path>
          <path d="M307.16,151.06l-22.91,14.37a.72.72,0,0,0-.23,1l6.85,10.45a.76.76,0,0,0,1,.23L315,162.64a.7.7,0,0,0,.32-.81s0,0,0-.06a.61.61,0,0,0-.07-.14l-1.93-2.94-.12-.19a.23.23,0,0,0-.32-.07.24.24,0,0,1-.33-.08l-2.25-3.43a.23.23,0,0,1,.06-.32.24.24,0,0,0,.09-.3l0,0-1.88-2.88,0-.06A1,1,0,0,0,307.16,151.06Z" style="fill: rgb(55, 71, 79); transform-origin: 299.629px 164.048px;" id="elnemrgj6ltp" class="animable"></path>
          <path d="M312.82,157.42l-1-1.57a.19.19,0,1,0-.32.2l1,1.57a.21.21,0,0,0,.27.07A.18.18,0,0,0,312.82,157.42Z" style="fill: rgb(38, 50, 56); transform-origin: 312.159px 156.727px;" id="el3hg8kdeuy2j" class="animable"></path>
          <path d="M311.33,155a.23.23,0,0,0-.32-.07.22.22,0,0,0-.07.31.23.23,0,0,0,.32.07A.22.22,0,0,0,311.33,155Z" style="fill: rgb(38, 50, 56); transform-origin: 311.135px 155.12px;" id="eln7f3kt00bgp" class="animable"></path>
          <path d="M313.93,164.48a1.32,1.32,0,0,1,.83-.1.37.37,0,0,1,.26.14l.15.22c0,.06,0,.13-.08.18l-2,1.27a1.36,1.36,0,0,1-.84.09.39.39,0,0,1-.25-.12l-.15-.23c0-.06,0-.13.08-.19Z" style="fill: rgb(69, 90, 100); transform-origin: 313.51px 165.331px;" id="elpw53xy16w3" class="animable"></path>
          <path d="M314.08,164.71l-2,1.26c-.18.11-.1.25.18.31a1.36,1.36,0,0,0,.84-.09l2-1.27c.18-.11.1-.25-.18-.31A1.25,1.25,0,0,0,314.08,164.71Z" style="fill: rgb(55, 71, 79); transform-origin: 313.59px 165.444px;" id="el8albahxs6m" class="animable"></path>
          <path d="M310.41,166.69a1.32,1.32,0,0,1,.83-.1.39.39,0,0,1,.26.14l.15.22c0,.06,0,.13-.08.18l-2,1.27a1.32,1.32,0,0,1-.83.09.36.36,0,0,1-.25-.12l-.16-.23c0-.06,0-.13.08-.19Z" style="fill: rgb(69, 90, 100); transform-origin: 309.99px 167.542px;" id="eltmbnjdxqqgm" class="animable"></path>
          <path d="M310.55,166.92l-2,1.26c-.18.11-.1.25.18.31a1.32,1.32,0,0,0,.83-.09l2-1.27c.18-.11.1-.25-.18-.31A1.28,1.28,0,0,0,310.55,166.92Z" style="fill: rgb(55, 71, 79); transform-origin: 310.055px 167.656px;" id="elwptrgoqxtz" class="animable"></path>
        </g>
      </g>
    </g>
    <g id="freepik--Lines--inject-54" class="animable" style="transform-origin: 303.985px 311.37px;">
      <polygon points="299.02 315.89 309.24 321.5 319.41 327.21 339.66 338.76 359.8 350.52 369.82 356.47 379.79 362.52 369.57 356.9 359.4 351.2 339.15 339.64 319.02 327.88 309 321.93 299.02 315.89" style="fill: rgb(235, 235, 235); transform-origin: 339.405px 339.205px;" id="el2wpkw7qfc53" class="animable"></polygon>
      <path d="M315.48,339.66c2.3,1.19,4.56,2.44,6.83,3.66l6.78,3.75c4.51,2.51,9,5.1,13.47,7.64s8.92,5.2,13.35,7.85l6.63,4c2.2,1.36,4.41,2.69,6.59,4.08-2.3-1.19-4.56-2.44-6.83-3.65l-6.78-3.75c-4.51-2.52-9-5.1-13.47-7.65s-8.92-5.19-13.35-7.85l-6.63-4C319.87,342.38,317.66,341.05,315.48,339.66Z" style="fill: rgb(235, 235, 235); transform-origin: 342.305px 355.15px;" id="elykw9b2pxt6" class="animable"></path>
      <path d="M273.83,278.57l-8.38-5c-5.6-3.33-11.24-6.59-16.85-9.88s-8.74-5-14.42-8.21l-6-3.38v.68l5.65,3.38c5.6,3.33,8.68,5.11,14.3,8.41s11.29,6.49,17,9.68l8.52,4.77c2.86,1.56,5.7,3.15,8.58,4.68C279.4,282,276.61,280.27,273.83,278.57Z" style="fill: rgb(235, 235, 235); transform-origin: 255.205px 267.9px;" id="el56lcwidcrds" class="animable"></path>
      <path d="M231,268.31c1.5.74,3,1.54,4.46,2.31l4.41,2.41c2.94,1.6,5.84,3.27,8.74,5s5.78,3.39,8.62,5.15l4.27,2.65c1.41.92,2.83,1.8,4.22,2.74-1.51-.74-3-1.54-4.47-2.31l-4.41-2.4c-2.94-1.61-5.84-3.28-8.74-5s-5.77-3.39-8.62-5.15l-4.27-2.65C233.8,270.14,232.37,269.25,231,268.31Z" style="fill: rgb(235, 235, 235); transform-origin: 248.36px 278.44px;" id="el8us5k5wv1cp" class="animable"></path>
    </g>
  </g>
  <g id="freepik--character-1--inject-54" class="animable" style="transform-origin: 141.607px 236.061px;">
    <g id="freepik--character--inject-54" class="animable" style="transform-origin: 156.945px 236.061px;">
      <g id="freepik--bottom--inject-54" class="animable" style="transform-origin: 141.091px 305.069px;">
        <path d="M62.73,337a10.56,10.56,0,0,1-.3-3.32c.21-2.8.82-6.22,2.32-8.58,1.7-2.69,3.65-5.29,4.88-8.24a39.64,39.64,0,0,0,2.73-9.64c.39-2.64.39-5.59,1.44-8.08,3.21-7.55,11.61-6.42,16.44-7l17.7-11.65,5.43,23.31s-9.45,3-12.22,4.31c-3.67,1.73-7.19,6.14-9.49,9.3-2.92,4-6.52,8.15-6.77,13.31a40.59,40.59,0,0,0,.85,8.35,7.58,7.58,0,0,1,.14,2.37c-.33,2.18-2.34,3.64-4.17,4.85-3,2-6.55,4-9.9,2.81a10.89,10.89,0,0,1-4.58-3.89A22.37,22.37,0,0,1,62.73,337Z" style="fill: rgb(255, 168, 167); transform-origin: 87.8877px 314.974px;" id="el48ipquhu476" class="animable"></path>
        <path d="M82.61,352.49a11.43,11.43,0,0,1-6.78.17,22.25,22.25,0,0,1-6-2.49c-5.89-3.39-9.87-9.18-10.23-14.09C59.23,331.56,63,322.22,64,319.6c1.25-3.2,1.4-8.06,1.06-10.91-.2-1.68.1-11.68,1-12.76l6.8-1.59s-2.68,5.19-2.46,8.58-.58,18-1.92,21.8-.76,10.71,2.26,15.27,14.51,9.32,14.51,9.32Z" style="fill: rgb(38, 50, 56); transform-origin: 72.4123px 323.717px;" id="elhky5h072j3" class="animable"></path>
        <path d="M85.36,332.1l-5.23-4.92s-.12-14,1.8-19.35,4.23-5.8,4.93-4.46c2.24,4.23,9.89,7.69,11.39,6.57,1,1.87-1.83,1.84-4.35,5.6C91.54,319.07,86.78,324.48,85.36,332.1Z" style="fill: rgb(55, 71, 79); transform-origin: 89.2923px 317.416px;" id="el21dx5n9r2wi" class="animable"></path>
        <path d="M67.56,315.5a26.34,26.34,0,0,1-2.06,7.25c-2.38,5.64-4,12.34-1.14,18.16a15,15,0,0,0,5.23,5.68,39.18,39.18,0,0,0,7,3.5c2.2.91,6.32,1.05,6.93.72,1.81-1.22,3.44-3.16,3.51-5.44.1-3.73-.65-7.46-.58-11.19a21.57,21.57,0,0,1,.35-5.62A30.91,30.91,0,0,1,89.42,323a73.29,73.29,0,0,1,4.48-7.41c-1.88,2.68-7.79,9.81-8.78,14.35l-3.75-3.45A98,98,0,0,1,82,315.16a27.85,27.85,0,0,1,2.24-7.59,4.68,4.68,0,0,0,.25-3.82c-.5-1.19-1.63-2-2.24-3.18a4.25,4.25,0,0,1-.36-3.32,5.75,5.75,0,0,1,2.7-2.7,39,39,0,0,1,5.65-2.48.92.92,0,0,0-.92-1.06c-.94,0-1.87.1-2.81.19l-6.29.6a38.05,38.05,0,0,0-5.74,1.05,8.09,8.09,0,0,0-2.54.94,7.07,7.07,0,0,0-2.45,3.47,29.48,29.48,0,0,0-1.92,9.38C67.41,309.6,67.88,312.58,67.56,315.5Z" style="fill: rgb(69, 90, 100); transform-origin: 78.3681px 320.991px;" id="el243hj33a9et" class="animable"></path>
        <path d="M75.1,292.81c.76,1.34-.58,5.27-2.66,7.47s-6.9,5.54-7.35,8.41A23.55,23.55,0,0,1,65,297c.42-1.64,1.5-2.24,2.69-2.94S74.8,292.1,75.1,292.81Z" style="fill: rgb(250, 250, 250); transform-origin: 69.8113px 300.645px;" id="eli398v17c6nb" class="animable"></path>
        <path d="M82.65,352.35c1.11-2,1.57-4,.25-4.39s-7.87-1.71-9.61-1.13-3.52,3.52-3.52,3.52a17.88,17.88,0,0,0,6.66,2.79C80.6,354,82.65,352.35,82.65,352.35Z" style="fill: rgb(250, 250, 250); transform-origin: 76.7376px 350.037px;" id="ele5vu3giyaqo" class="animable"></path>
        <path d="M81.69,304.31a.88.88,0,0,0,0,1.25.9.9,0,0,0,1.26,0,.89.89,0,0,0-1.24-1.27Z" style="fill: rgb(250, 250, 250); transform-origin: 82.3008px 304.949px;" id="elhn60d0db8vq" class="animable"></path>
        <path d="M79.87,323.32a1.6,1.6,0,0,1,1,.21,10.13,10.13,0,0,1,1,.46,10.79,10.79,0,0,1,1.8,1.19,10.9,10.9,0,0,1,1.55,1.49,5.56,5.56,0,0,1,1.22,1.92c.06.24-.4.31-.52.17-.48-.55-.86-1.18-1.35-1.73a11.15,11.15,0,0,0-1.45-1.38,11.37,11.37,0,0,0-1.6-1.06q-.41-.22-.84-.42a4.85,4.85,0,0,1-1-.45A.23.23,0,0,1,79.87,323.32Z" style="fill: rgb(250, 250, 250); transform-origin: 83.0233px 326.07px;" id="eljb5sul91tt" class="animable"></path>
        <path d="M79.91,323.25a6,6,0,0,1,2-.41,10.28,10.28,0,0,1,2.21.07,10.9,10.9,0,0,1,2.2.55,8.15,8.15,0,0,1,1.1.48,3.51,3.51,0,0,1,1,.67c.11.13-.13.26-.23.22-.68-.23-1.34-.58-2-.82a10.69,10.69,0,0,0-2-.48,9.51,9.51,0,0,0-1.92-.06c-.31,0-.63.07-.93.13s-.63.17-1,.21a.52.52,0,0,1-.49-.18A.25.25,0,0,1,79.91,323.25Z" style="fill: rgb(250, 250, 250); transform-origin: 84.118px 323.824px;" id="elqgl0h3iiq6d" class="animable"></path>
        <path d="M81.35,318.94a18.31,18.31,0,0,1,5.11,9.13c.05.32-.52.44-.57.16a19.11,19.11,0,0,0-5.08-9C80.51,318.94,81.1,318.71,81.35,318.94Z" style="fill: rgb(250, 250, 250); transform-origin: 83.595px 323.617px;" id="eli9w3ee3ftr" class="animable"></path>
        <path d="M80.88,319a6.81,6.81,0,0,1,2.35-.29,12,12,0,0,1,2.52.28,12.17,12.17,0,0,1,2.45.82,10.81,10.81,0,0,1,1.21.65,4.05,4.05,0,0,1,1.07.86c.11.15-.18.28-.28.23-.76-.33-1.48-.79-2.24-1.12a12,12,0,0,0-2.29-.73,10.78,10.78,0,0,0-2.18-.24c-.36,0-.73,0-1.08,0s-.73.14-1.1.16a.57.57,0,0,1-.54-.25A.26.26,0,0,1,80.88,319Z" style="fill: rgb(250, 250, 250); transform-origin: 85.6182px 320.131px;" id="el0h53peg6le1c" class="animable"></path>
        <path d="M81.85,315.1a8.35,8.35,0,0,1,2.82-.31,13.4,13.4,0,0,1,5.74,1.32,9.83,9.83,0,0,1,1.34.76,3.83,3.83,0,0,1,1.16,1c.12.17-.24.32-.36.26-.86-.39-1.65-.92-2.5-1.31a13.65,13.65,0,0,0-2.62-.87,13,13,0,0,0-2.55-.3q-.64,0-1.29.06c-.44,0-.88.15-1.32.17a.64.64,0,0,1-.61-.29A.34.34,0,0,1,81.85,315.1Z" style="fill: rgb(250, 250, 250); transform-origin: 87.2751px 316.459px;" id="elyttsnamitb" class="animable"></path>
        <path d="M82.47,315.76c2.79,2.18,4.51,5.41,6,8.55.14.28-.41.46-.55.21-1.66-3-3.3-6.1-6-8.39C81.63,315.84,82.2,315.55,82.47,315.76Z" style="fill: rgb(250, 250, 250); transform-origin: 85.1662px 320.164px;" id="el9gsrwdoyohc" class="animable"></path>
        <path d="M83,311c3.43,2.75,6.71,6.83,7.8,10.16.12.36-.47.48-.6.17a26.74,26.74,0,0,0-7.72-10C82,311,82.62,310.72,83,311Z" style="fill: rgb(250, 250, 250); transform-origin: 86.5606px 316.197px;" id="elrn1vs85hq7" class="animable"></path>
        <path d="M182.67,204.92a217.67,217.67,0,0,1-3.33,59.75c-3.31,17.11-21.67,22.8-25.46,24.41-16.81,7.16-48.6,17.36-48.6,17.36s-10.55-8.56-7.91-19.07c13.15-10.31,27.59-25,40.53-27L149,203.72Z" style="fill: rgb(55, 71, 79); transform-origin: 140.176px 255.08px;" id="elog94ivs25xs" class="animable"></path>
        <path d="M178.77,267l-9.4-32.13a28.61,28.61,0,0,0,8.74-20.34l-32.52,9-.81,1.66-6.88,35.16c-5.8.91-11.89,4.37-18,8.83h0l13.88,27.62c7.22-2.58,14.52-5.31,20.14-7.71C157.5,287.54,174.33,282.29,178.77,267Z" style="fill: rgb(38, 50, 56); transform-origin: 149.335px 255.665px;" id="ely1dphtvpx9j" class="animable"></path>
        <path d="M192.86,370.85c-1.62.12-1.7-2-2.38-7-.75-5.49-3.64-27-3.64-27L161,347.08s6.72,17.69,8.83,22.8c2.35,5.67,5.63,13.44,6.16,17.86s.78,16.72,6.32,18.93,10.67-.32,14.32-2.71,7.88-10.74,11.93-15S216,382.41,219.08,378s2.89-15.18-1.34-17.43-10.22.32-13.75,2.44S195.86,370.65,192.86,370.85Z" style="fill: rgb(255, 168, 167); transform-origin: 191.091px 372.185px;" id="elgqqf2ce8hr5" class="animable"></path>
        <path d="M118.13,201c-.44,2.28-3.71,12.55-4.26,22-.72,12.29,1.32,20.61,5.32,28.08,7.74,14.46,11.71,18.18,28.87,51,.05,7.37.2,14.7,5.58,28.52,6.7,17.18,14.68,35.65,14.68,35.65s6-10.83,21.18-9.23c-.8-8.47-5.85-48.77-8.32-60.68-3.08-14.82-16.3-63.62-16.3-63.62s16.77-4.84,16.37-31.7Z" style="fill: rgb(55, 71, 79); transform-origin: 151.614px 283.625px;" id="el78bwvit6fla" class="animable"></path>
        <path d="M218.34,360.07c-2.47-2.35-6.4-2.31-11.61.29a30.93,30.93,0,0,0-9.26,6.72c-.8,1-1.59,1.68-2.94,1.24a8.44,8.44,0,0,1-1.24-.62c-2.92-1.48-6.45-.21-9.35,1.31a1.93,1.93,0,0,0-.78.6c-.5.81.36,1.77,1.16,2.29a8.33,8.33,0,0,1,2,1.93l-2.21-.54a3.15,3.15,0,0,0-1.36-.13,2.9,2.9,0,0,0-1.72,1.69,18.18,18.18,0,0,0-1.24,3,6,6,0,0,1-1.3,2.79,2.79,2.79,0,0,1-2.79.59,3.54,3.54,0,0,1-2.21-2.11c-.07.07-.14.14-.22.57a2,2,0,0,0,0,.84c.2.78.73,1.43,1,2.19a30.63,30.63,0,0,1,1.27,7.23c.56,6.46,1.31,10,2.49,13.26L205.2,377l-1.79-2.3C209.47,371,218.34,360.07,218.34,360.07Z" style="fill: rgb(69, 90, 100); transform-origin: 195.783px 380.783px;" id="elu3isbufqemh" class="animable"></path>
        <path d="M222.1,364.61a5.31,5.31,0,0,0-2-3.54c-.34-.22-1.54-.85-1.77-1-3.07-2-8.57,2.29-13.2,6.5-5.4,4.89-10.4,14.72-14.76,21.38s-9.8,9.22-11.59,12.15a4.84,4.84,0,0,0,.52,6c.28.31,1.3,1.26,1.51,1.46,1.43,1.37,4,1.93,7,1.35,6.05-1.16,10.41-3.08,15.41-10.21s7.65-10.82,13.49-15.4S223.35,370.35,222.1,364.61Z" style="fill: rgb(55, 71, 79); transform-origin: 200.291px 384.35px;" id="el26s3c7bz1rs" class="animable"></path>
        <path d="M222.1,364.61c-1.75-8.05-9.19-2.47-15.19,3-5.4,4.89-10.39,14.72-14.76,21.38s-9.92,9.14-11.58,12.15c-3,5.48,1.17,8.93,7.22,7.76s10.41-3.08,15.41-10.21,7.65-10.82,13.49-15.4S223.35,370.35,222.1,364.61Z" style="fill: rgb(38, 50, 56); transform-origin: 201.089px 384.851px;" id="elkqa3puo7dtr" class="animable"></path>
        <path d="M181,407.64c-3.88-1.59-4.64-10.74-4.92-13.07s1.73-4.39,5.36-3.08a22.14,22.14,0,0,0,8.11.92,40,40,0,0,1-5.32,5.34C181.77,399.75,178,404.72,181,407.64Z" style="fill: rgb(250, 250, 250); transform-origin: 182.802px 399.361px;" id="elqr5mp7djxdr" class="animable"></path>
        <path d="M209.41,365.4c1.22-1.49-.49-3.52-.53-4.6s1-2.21,4.05-2.57,3.93-.27,5.41.72a10.14,10.14,0,0,1,2.58,2.87,4.57,4.57,0,0,0-3.71-.88C213.11,361.57,209.41,365.4,209.41,365.4Z" style="fill: rgb(250, 250, 250); transform-origin: 214.899px 361.718px;" id="elcb4xn3tsxk" class="animable"></path>
        <path d="M184.71,376.37a1.21,1.21,0,1,1-1.21-1.2A1.2,1.2,0,0,1,184.71,376.37Z" style="fill: rgb(250, 250, 250); transform-origin: 183.5px 376.38px;" id="el8s8b7n0ddft" class="animable"></path>
      </g>
      <g id="freepik--top--inject-54" class="animable" style="transform-origin: 160.241px 154.863px;">
        <g id="freepik--top--inject-54" class="animable" style="transform-origin: 184.447px 144.142px;">
          <g id="freepik--Chest--inject-54" class="animable" style="transform-origin: 184.447px 144.142px;">
            <path d="M254.12,110.47c-.24-.87-.84-1.4-1-2.25s0-1.69-.31-2.53c-.42-1.27-1.29-1.5-2.67-2.15a3,3,0,0,1-1.37-1.15,9.29,9.29,0,0,1-.5-1.7A5.14,5.14,0,0,0,244,97.25c-.68-1.73-1-2.59-1.67-4.31a1.14,1.14,0,0,0-.54-.66.56.56,0,0,0-.53.06,3.34,3.34,0,0,0-1.78,1.82,9,9,0,0,0-.65,4.74,95.21,95.21,0,0,1-.39,9.6c-.11.85-.51,6.57-2.68,4.61a3,3,0,0,1-.69-1.47,15.14,15.14,0,0,0-2.11-4.58,5,5,0,0,0-1.4-1.48c-.68-.43-2.07-.69-2.53.21s.21,2.51.31,3.32a61.56,61.56,0,0,1,.56,7.55,25.81,25.81,0,0,0,.73,7,14.19,14.19,0,0,1,.28,2.13,13.94,13.94,0,0,1-2.12,7.75c-2.16,3.87-11.22,19.64-11.22,19.64s-3.18-1.75-17.8-11.94c-10.4-7.24-11.15-10.68-23.67-12.62,0,0-1.63,18.42,4.93,30.32,10.22,5.75,26.63,15.12,33.87,18,8.47,3.34,13.29,3.72,16.85-1.87,6.24-9.8,8.83-22.94,11.44-31.05A78.08,78.08,0,0,1,249,130.21a50.64,50.64,0,0,0,3.78-8.19C253.58,119.48,254.79,113,254.12,110.47Z" style="fill: rgb(255, 168, 167); transform-origin: 215.118px 135.808px;" id="elbqfk4kfunyg" class="animable"></path>
            <path d="M241.66,119.2a13.17,13.17,0,0,0-.77-2,5,5,0,0,0-1.11-1.7c-.18-.14-.63-.18-.58.16a9.75,9.75,0,0,0,.73,1.85,18.49,18.49,0,0,1,.61,1.77A13.1,13.1,0,0,1,241,123a10.51,10.51,0,0,1-.69,3.55,21.62,21.62,0,0,1-1.55,3c0,.09.06.35.19.27,2.08-1.37,3-4.22,3.12-6.59A12.16,12.16,0,0,0,241.66,119.2Z" style="fill: rgb(242, 143, 143); transform-origin: 240.428px 122.616px;" id="elaimn30j1n7k" class="animable"></path>
            <path d="M217.52,153.16a20.16,20.16,0,0,0-2.25,11.46,11.16,11.16,0,0,1-1.06-7c.6-4.27,1.48-5.62,1.48-5.62Z" style="fill: rgb(242, 143, 143); transform-origin: 215.782px 158.31px;" id="el6uefsxdy91a" class="animable"></path>
            <path d="M230.22,130.24c-1-.37-3.43,3.5-3.12,4.57s.67,3.74,7.37,7.06,8.85,2.07,9.57,1a25.81,25.81,0,0,0,1.89-4.91.74.74,0,0,0-.34-.67l-.54,1.16a15.59,15.59,0,0,1-8.52-1.91c-4.87-2.45-6.69-5.26-6.69-5.26Z" style="fill: rgb(55, 71, 79); transform-origin: 236.502px 137.116px;" id="eltxdq6b85f1i" class="animable"></path>
            <path d="M187.35,160.29c.71-21.58-7.63-29.91-11.3-31.69l-22-3.41c-4.71.23-21.83,3.15-27.4,4.17-3.58.66-9.21,8.29-9.62,22.11-.27,9.32,1.35,18.48,1.37,33.34,0,14.65-1.44,16-3.75,31.71,13.21,11.11,58.39,12.15,69.18.35,1-8.52,1-21.9,1.56-29.23S187.16,166.13,187.35,160.29Z" style="fill: rgb(245, 245, 245); transform-origin: 151.021px 175.242px;" id="elehqcbzb294m" class="animable"></path>
            <path d="M154,126.2l21.78,3.36c1.31.71,11.39,7,10.62,30.7-.16,4.78-1,15.21-1.64,22.83-.14,1.65-.27,3.17-.37,4.47-.25,3.05-.39,7.13-.54,11.45-.21,5.86-.44,12.48-1,17.42-4.72,4.86-16.7,7.86-31.42,7.86-15.44,0-29.35-3.2-35.73-8.19.68-4.57,1.27-7.84,1.8-10.73a92,92,0,0,0,1.88-20.56c0-7.66-.44-13.81-.82-19.23-.36-5.14-.68-9.59-.55-14.08.4-13.71,6-20.65,8.81-21.16,5.89-1.08,22.52-3.89,27.16-4.14m0-1c-4.71.23-21.83,3.15-27.4,4.17-3.58.66-9.21,8.29-9.62,22.11-.27,9.32,1.35,18.48,1.37,33.34,0,14.65-1.45,16-3.75,31.71,6.8,5.72,22.1,8.77,36.8,8.77,13.84,0,27.15-2.7,32.38-8.42,1-8.52,1-21.9,1.56-29.23s1.81-21.51,2-27.35c.71-21.58-7.63-29.91-11.3-31.69l-22-3.41Z" style="fill: rgb(224, 224, 224); transform-origin: 150.971px 175.25px;" id="elwlpu4e9d5d" class="animable"></path>
            <path d="M183.53,165c0,.38-.74,14.25-1.65,21.67-16.75,7.12-44.61,4.32-44.61,4.32l1.38-21.47C145.71,170.18,172.07,169.73,183.53,165Z" style="fill: rgb(255, 255, 255); transform-origin: 160.4px 178.266px;" id="elh32oo0hgs9a" class="animable"></path>
            <path d="M150,192c-7.35,0-12.67-.52-12.79-.53l-.49-.05L138.19,169l.51.05c7.06.68,33.37.19,44.64-4.49l.72-.29,0,.77c0,.11-.72,14.06-1.65,21.72l0,.28-.26.12C172.64,191.12,159.6,192,150,192Zm-12.21-1.48c3.74.32,28.35,2.13,43.62-4.22.76-6.38,1.41-17.53,1.58-20.57-12,4.56-36.78,4.86-43.88,4.31Z" style="fill: rgb(224, 224, 224); transform-origin: 160.39px 178.135px;" id="elqi6i6hlyvsp" class="animable"></path>
            <path d="M149.92,179.53a2.73,2.73,0,0,0,.89-1,3.18,3.18,0,0,0,.27-.93,1.84,1.84,0,0,0-.35-1.39,1.92,1.92,0,0,0-1.62-.52,2.54,2.54,0,0,0-1.7.6,3.9,3.9,0,0,0-.91,1.42.76.76,0,0,1-.29.4.74.74,0,0,1-.39.14l-1.62,0a.54.54,0,0,1-.39-.15.41.41,0,0,1-.1-.39,5,5,0,0,1,.7-1.74,5.8,5.8,0,0,1,1.27-1.44,6.06,6.06,0,0,1,1.71-1,5.79,5.79,0,0,1,2-.41,4.84,4.84,0,0,1,2.14.34,3.65,3.65,0,0,1,2.16,2.42,4.4,4.4,0,0,1,.13,1.57,6.89,6.89,0,0,1-.15,1,3.55,3.55,0,0,1-.37.92,5.46,5.46,0,0,1-.75,1,10.44,10.44,0,0,1-1.25,1.12c-1.67,1.43-2.51,2.13-4.21,3.54,2.32-.08,3.48-.13,5.78-.27a.48.48,0,0,1,.38.14.44.44,0,0,1,.13.36c-.06.57-.08.85-.14,1.41a.57.57,0,0,1-.2.39.66.66,0,0,1-.41.18c-3.9.24-5.87.32-9.84.4a.52.52,0,0,1-.38-.15.44.44,0,0,1-.12-.38c.06-.49.1-.73.16-1.22a1.06,1.06,0,0,1,.29-.6,2.12,2.12,0,0,1,.4-.35C145.9,182.78,147.26,181.71,149.92,179.53Z" style="fill: #008CFF; transform-origin: 148.062px 180.374px;" id="eln6turq4n22n" class="animable"></path>
            <path d="M166.84,177.29q0,.38,0,.84c0,.3,0,.61-.05.93s0,.63,0,.93,0,.58-.07.83a9.94,9.94,0,0,1-.46,2.17,5.4,5.4,0,0,1-1,1.79,5.18,5.18,0,0,1-1.74,1.31,7.55,7.55,0,0,1-2.55.66,6.56,6.56,0,0,1-2.52-.18,3.38,3.38,0,0,1-1.59-1,3.61,3.61,0,0,1-.8-1.64,8.34,8.34,0,0,1-.16-2.11c0-.51.05-1.08.11-1.73s.12-1.23.2-1.74a11.16,11.16,0,0,1,.54-2.21,5.76,5.76,0,0,1,1.07-1.83,5.61,5.61,0,0,1,1.71-1.3,6.73,6.73,0,0,1,2.47-.63,5.94,5.94,0,0,1,2.39.19,3.35,3.35,0,0,1,1.53,1,3.84,3.84,0,0,1,.8,1.63A9.13,9.13,0,0,1,166.84,177.29Zm-8.3,4.23a3.49,3.49,0,0,0,.53,2.16,2,2,0,0,0,2,.6,2.81,2.81,0,0,0,2.08-1A4.64,4.64,0,0,0,164,181c.06-.5.1-1.06.14-1.67s.07-1.17.07-1.67a3.72,3.72,0,0,0-.54-2.16,2,2,0,0,0-1.91-.61,2.72,2.72,0,0,0-2,1,4.89,4.89,0,0,0-.87,2.29c-.07.51-.13,1.08-.18,1.69S158.55,181,158.54,181.52Z" style="fill: #008CFF; transform-origin: 161.372px 179.567px;" id="elm8c0dimy4nj" class="animable"></path>
            <path d="M178.44,170.51a.4.4,0,0,1,.35.1.45.45,0,0,1,.15.35c0,.57,0,.85,0,1.41a.72.72,0,0,1-.15.43,4.43,4.43,0,0,1-.28.37c-1.14,1.41-1.72,2.1-2.88,3.49a5.16,5.16,0,0,1,1.57.19,3.24,3.24,0,0,1,1.2.61,2.79,2.79,0,0,1,.76,1,4,4,0,0,1,.25,1.48,4.35,4.35,0,0,1-.43,1.87,5,5,0,0,1-1.15,1.52,6.53,6.53,0,0,1-1.72,1.11,8.25,8.25,0,0,1-2.15.63,7.41,7.41,0,0,1-2.43,0,4.66,4.66,0,0,1-1.69-.59,2.77,2.77,0,0,1-1.37-2.24.51.51,0,0,1,.17-.4.67.67,0,0,1,.4-.2l1.57-.21a.42.42,0,0,1,.33.09,1.27,1.27,0,0,1,.25.32,1.61,1.61,0,0,0,.3.4,1.56,1.56,0,0,0,.51.3,2.63,2.63,0,0,0,.82.14,6.09,6.09,0,0,0,1.21-.08,4,4,0,0,0,2-.78,1.84,1.84,0,0,0,.77-1.48,1.06,1.06,0,0,0-.7-1.14,4.06,4.06,0,0,0-1.92-.09l-1.64.24A.44.44,0,0,1,172,179l.05-1.41a.75.75,0,0,1,.17-.42c.1-.14.2-.26.29-.37,1.14-1.32,1.7-2,2.81-3.31-2.13.32-3.19.47-5.34.74a.44.44,0,0,1-.5-.47c0-.57,0-.85.07-1.42a.58.58,0,0,1,.17-.4.59.59,0,0,1,.37-.21C173.44,171.3,175.11,171.06,178.44,170.51Z" style="fill: #008CFF; transform-origin: 173.94px 177.836px;" id="elcmlxzr8b1zw" class="animable"></path>
            <path d="M187.39,157.6c0-19.58-7.83-27.29-11.34-29l-22-3.41c-4.71.23-21.83,3.15-27.4,4.17-3.58.66-9.21,8.29-9.62,22.11-.09,3.22,0,6.41.26,9.83,12.39.73,24.84,1.89,37.21,1.28S176.71,161.28,187.39,157.6Z" style="fill: #008CFF; transform-origin: 152.193px 143.971px;" id="elb0wzpthxalg" class="animable"></path>
            <g id="freepik--head--inject-54" class="animable" style="transform-origin: 162.563px 105.217px;">
              <path d="M145.59,116.76c-.59-5.27-5.46-11-7.54-15.71-2-4.52-3.14-8-2.65-12.11.29-2.44,2-5.66,3.88-6.25-1.57-9.21,5.49-13,9.16-13.68a36.92,36.92,0,0,0,5.09-1.1c2-.71,2.55-2.27,4.22-3.52,2.87-2.16,7.47-2,9,1.67,1.95-2.25,4.42-2,7.22-1.16a4.88,4.88,0,0,1,3.41,5.72c3.93-1.91,7.27,1,7.49,3.24.16,1.67-.27,3,.73,4.59,1.12,1.73,3.42,1.84,4.2.53.26,2.37-.76,4.11-3.3,3.83a5.36,5.36,0,0,1,.4,4.52,4.88,4.88,0,0,1-4.59,3.1A8.5,8.5,0,0,1,181,93.94a8.63,8.63,0,0,1-3.16,2.53c-4,1.61-8.26,2-12.46,2.58l-5,.73c-.29,0-1.79,0-2,.29Z" style="fill: rgb(38, 50, 56); transform-origin: 162.563px 89.8722px;" id="elmib3a5feond" class="animable"></path>
              <path d="M139.65,109.64c3.55,2.41,6.17.18,6.17.18l-1,10.5-1.26,8.48s5.45,13.1,22.59,18.65c1.19-3,1-13.28-.79-16.32l.89-8.09a50.12,50.12,0,0,0,6.23.09,10.85,10.85,0,0,0,9.2-7.73,47,47,0,0,0,1.58-17.72,15.55,15.55,0,0,1,0-4.31c.62-3.79.06-6-.74-9.3-4.29-3.89-17-5.38-27,0,1.79,5.07.19,10-4.15,12,.11,1.57.07,5.52-2.49,5.3-1.84-.16-1.83-2.48-3.61-4.64s-6.17-3-8.06,0C134.53,100.71,135.77,107,139.65,109.64Z" style="fill: rgb(255, 168, 167); transform-origin: 159.652px 114.011px;" id="el4sy8rmdmin" class="animable"></path>
              <path d="M143.74,103a2.42,2.42,0,0,1-1.15,2,2.5,2.5,0,0,1-1.24.39c-.27,0-.2.42,0,1.67l.12.79a.79.79,0,0,1-.59.94h0a.78.78,0,0,1-.94-.58l-1.06-4.59a2.6,2.6,0,0,1,1.85-3.15A2.49,2.49,0,0,1,143.74,103Z" style="fill: rgb(250, 250, 250); transform-origin: 141.271px 104.613px;" id="eld9mzr0edl5b" class="animable"></path>
              <path d="M166.23,123c-6.44-1.14-11.34-2.13-14.44-7a40.73,40.73,0,0,1-3.47-7.92s.33,5.79,2.22,9.81c1.46,3.1,5.33,5.83,15.46,7.3Z" style="fill: rgb(242, 143, 143); transform-origin: 157.275px 116.635px;" id="el0tuibnr6kkws" class="animable"></path>
              <path d="M166.13,97.41a1.83,1.83,0,1,1-3.65-.27,1.85,1.85,0,0,1,2-1.76A1.87,1.87,0,0,1,166.13,97.41Z" style="fill: rgb(38, 50, 56); transform-origin: 164.306px 97.2435px;" id="elea6l1lg67s" class="animable"></path>
              <path d="M164.61,92.06l-4.11,1.77a2.35,2.35,0,0,1,1.21-3A2.18,2.18,0,0,1,164.61,92.06Z" style="fill: rgb(38, 50, 56); transform-origin: 162.473px 92.2413px;" id="elv50fk9f44n" class="animable"></path>
              <path d="M181,93.15l-4.27-1.44a2.18,2.18,0,0,1,2.79-1.46A2.37,2.37,0,0,1,181,93.15Z" style="fill: rgb(38, 50, 56); transform-origin: 178.913px 91.643px;" id="elu36jswoc59" class="animable"></path>
              <path d="M180.51,97.23a1.83,1.83,0,1,1-1.69-2A1.86,1.86,0,0,1,180.51,97.23Z" style="fill: rgb(38, 50, 56); transform-origin: 178.687px 97.0553px;" id="el79vnucf3mbm" class="animable"></path>
              <path d="M177.43,104.27l-6.52,2.45-1.24-12.58C172.08,93.44,174.79,99.34,177.43,104.27Z" style="fill: rgb(242, 143, 143); transform-origin: 173.55px 100.402px;" id="els1tqbexjt3" class="animable"></path>
              <path d="M163.85,109.38l7.54,2.08a3.85,3.85,0,0,1-4.74,2.87A4.1,4.1,0,0,1,163.85,109.38Z" style="fill: rgb(177, 102, 104); transform-origin: 167.555px 111.919px;" id="el1dft2b7byuh" class="animable"></path>
              <path d="M164.7,110.68a4.35,4.35,0,0,0-.95,0,4.06,4.06,0,0,0,2.9,3.69,4.1,4.1,0,0,0,1.25.11A3.59,3.59,0,0,0,164.7,110.68Z" style="fill: rgb(242, 143, 143); transform-origin: 165.829px 112.571px;" id="elegmv5pre3q" class="animable"></path>
            </g>
          </g>
        </g>
        <g id="freepik--arm--inject-54" class="animable" style="transform-origin: 98.2344px 188.066px;">
          <path d="M91.66,231.62c-1.5-3.28-2.58-5.67-2.52-6.81.24-1.83,3.26,2.67,4.58,3.55a5.06,5.06,0,0,0,3.64,1.06c.84,0,2.15-.94,2-1.77,0-.18-.17-.28-.29-.41a46.81,46.81,0,0,1-4.51-6.71,58,58,0,0,0-4.35-6.65c-1.26-1.63-3.55-4-3.59-7.4-.16-11.16.64-17,1.14-27.84,9.21-3.82,23-9.73,27.08-11.4,5.61-2.31,9.45-4.46,12.35-8.91,3.85-5.94,4.73-25.53-.85-28.94-11.15.51-15.69,7.15-25.33,12.93-5,3-7.5,5.13-15.29,10.2a142.92,142.92,0,0,0-13.26,9.36c-2.35,1.82-6.64,5.71-6.27,12.23a129.16,129.16,0,0,0,1.7,16.21c.71,4.83,3.17,25.37,3.3,28.21a55.86,55.86,0,0,0,1.19,9.15c.6,2.52,3.44,8.61,5.26,10.32.64.6,1.4.73,2,1.33s.9,1.38,1.55,1.93c1,.85,1.82.59,3.31.43a2.77,2.77,0,0,1,1.7.25,8.72,8.72,0,0,1,1.28,1.16,5,5,0,0,0,5.29.65c1.45,1.09,2.16,1.64,3.58,2.72a1.07,1.07,0,0,0,.78.27.59.59,0,0,0,.41-.31,3.27,3.27,0,0,0,.55-2.41,8.84,8.84,0,0,0-1.88-4.26A91,91,0,0,1,91.66,231.62Z" style="fill: rgb(255, 168, 167); transform-origin: 98.2344px 188.066px;" id="eleyaafjl71l9" class="animable"></path>
        </g>
      </g>
      <g id="freepik--waist-bag--inject-54" class="animable" style="transform-origin: 151.173px 226.365px;">
        <path d="M153,217.77c6.56-1.05,21.18-4.61,25.22-5.24a5.6,5.6,0,0,1,4.48,1c.57.47,3.09,3,3.61,3.37a3.18,3.18,0,0,1,1.35,2.42c0,6.23.15,8.82-.2,11.73-.25,2-.71,3.71-4.3,5s-19,4.62-23.57,5.4c-4.3.73-8.87.95-10.7-.64-.47-.42-3.18-3-3.74-3.46a2.32,2.32,0,0,1-.81-1.93c.1-3.16.07-10,.08-12.27C144.39,220.36,146,218.88,153,217.77Z" style="fill: #008CFF; transform-origin: 166.013px 227.211px;" id="eld8x8lhmkowm" class="animable"></path>
        <g id="elga3xse6gx2">
          <path d="M153,217.77c6.56-1.05,21.18-4.61,25.22-5.24a5.6,5.6,0,0,1,4.48,1c.57.47,3.09,3,3.61,3.37a3.18,3.18,0,0,1,1.35,2.42c0,6.23.15,8.82-.2,11.73-.25,2-.71,3.71-4.3,5s-19,4.62-23.57,5.4c-4.3.73-8.87.95-10.7-.64-.47-.42-3.18-3-3.74-3.46a2.32,2.32,0,0,1-.81-1.93c.1-3.16.07-10,.08-12.27C144.39,220.36,146,218.88,153,217.77Z" style="opacity: 0.3; transform-origin: 166.013px 227.211px;" class="animable" id="elv3fz10cj9f"></path>
        </g>
        <path d="M148.78,224.25,145,220.9a73.84,73.84,0,0,1-10.41,0c-4-.44-4,4.65-2.73,6.55s12.39,11.14,16.1,12.6Z" style="fill: #008CFF; transform-origin: 139.945px 230.462px;" id="eld530t3cz9ol" class="animable"></path>
        <g id="el20kh3nj6u2k">
          <path d="M148.78,224.25,145,220.9c1-1.43,3.22-2.37,8-3.13,6.56-1.05,21.18-4.61,25.22-5.24a5.6,5.6,0,0,1,4.48,1c.57.47,3.09,3,3.61,3.37a3.53,3.53,0,0,1,1.26,1.77Z" style="opacity: 0.4; transform-origin: 166.285px 218.333px;" class="animable" id="elj0bzjyogk7q"></path>
        </g>
        <path d="M187.62,219.36c0,6.23.15,8.82-.2,11.73-.25,2-.71,3.71-4.3,5s-19,4.62-23.57,5.4c-5.58.95-11.65,1-11.54-2.58.11-3.15.08-9.95.08-12.26,0-2.86,1.67-4.34,8.58-5.45,6.57-1.06,21.18-4.62,25.23-5.25C185.32,215.45,187.62,217.5,187.62,219.36Z" style="fill: #008CFF; transform-origin: 167.83px 228.957px;" id="el35ysuc881nj" class="animable"></path>
        <g id="el98z8zt3qqjr">
          <path d="M187.62,219.36c0,6.23.15,8.82-.2,11.73-.25,2-.71,3.71-4.3,5s-19,4.62-23.57,5.4c-5.58.95-11.65,1-11.54-2.58.11-3.15.08-9.95.08-12.26,0-2.86,1.67-4.34,8.58-5.45,6.57-1.06,21.18-4.62,25.23-5.25C185.32,215.45,187.62,217.5,187.62,219.36Z" style="opacity: 0.18; transform-origin: 167.83px 228.957px;" class="animable" id="elybbifrrj9h"></path>
        </g>
        <path d="M145,220.9c.78-1.42,4.45,1.38,5,3.7a26.7,26.7,0,0,1,.57,4.55,1.58,1.58,0,0,0,1.78,1.3c7.22-1.26,34.77-6.13,35.66-6.74.47-.33.35-5.6-.86-6.87s-4.56-4.53-6.52-4.74-23.84,4.4-28.1,5.09S144.91,218.85,145,220.9Z" style="fill: #008CFF; transform-origin: 166.632px 221.279px;" id="elvcd3o38844o" class="animable"></path>
        <polygon points="167.13 231.75 174.22 230.4 173.96 233.66 166.87 235.01 167.13 231.75" style="fill: #008CFF; transform-origin: 170.545px 232.705px;" id="elq6ln97t5cik" class="animable"></polygon>
        <path d="M174.55,234.23l-8.38,1.58.38-4.63,8.37-1.58Zm-7.68.78,7.09-1.35.26-3.26-7.09,1.35Z" style="fill: rgb(55, 71, 79); transform-origin: 170.545px 232.705px;" id="elmk1pqvthtkc" class="animable"></path>
        <polygon points="151.87 230.32 186.8 223.7 186.73 224.58 151.8 231.2 151.87 230.32" style="fill: rgb(250, 250, 250); transform-origin: 169.3px 227.45px;" id="elnqxx16kccgg" class="animable"></polygon>
        <path d="M152.38,235.64l-.71.13c-.58.11-1-.35-.83-1l1-4.47,1.21-.23.32,4.22A1.34,1.34,0,0,1,152.38,235.64Z" style="fill: rgb(38, 50, 56); transform-origin: 152.087px 232.928px;" id="elftdy6myujw9" class="animable"></path>
        <path d="M133.93,221.92l-1,5.71s-15.71-7.08-18.85-11l1.06-5.94C117.08,213.5,126.88,218.34,133.93,221.92Z" style="fill: rgb(38, 50, 56); transform-origin: 124.005px 219.16px;" id="elx4q0oct3m3n" class="animable"></path>
      </g>
    </g>
    <g id="freepik--lines--inject-54" class="animable" style="transform-origin: 104.705px 310.245px;">
      <polygon points="99.74 314.75 109.96 320.37 120.13 326.07 140.38 337.63 160.52 349.39 170.54 355.34 180.51 361.38 170.29 355.77 160.13 350.06 139.88 338.51 119.74 326.75 109.72 320.8 99.74 314.75" style="fill: rgb(235, 235, 235); transform-origin: 140.125px 338.065px;" id="eln14q0ayk889" class="animable"></polygon>
      <path d="M116.2,338.53c2.3,1.19,4.56,2.44,6.83,3.65l6.78,3.76c4.51,2.5,9,5.09,13.47,7.64s8.92,5.19,13.35,7.85l6.64,4c2.19,1.37,4.4,2.7,6.58,4.09-2.3-1.19-4.56-2.44-6.83-3.66l-6.78-3.75c-4.51-2.51-9-5.1-13.47-7.64s-8.92-5.2-13.35-7.85l-6.63-4C120.59,341.25,118.38,339.92,116.2,338.53Z" style="fill: rgb(235, 235, 235); transform-origin: 143.025px 354.025px;" id="elyearsysg8k" class="animable"></path>
      <path d="M74.55,277.44l-8.38-5c-5.6-3.33-11.24-6.59-16.85-9.89s-8.74-5-14.42-8.2l-6-3.38v.67L34.51,255c5.6,3.34,8.68,5.11,14.3,8.41s11.29,6.49,17,9.69l8.52,4.77c2.86,1.55,5.71,3.14,8.58,4.67C80.12,280.81,77.33,279.14,74.55,277.44Z" style="fill: rgb(235, 235, 235); transform-origin: 55.905px 266.755px;" id="ele3c4fflpf6e" class="animable"></path>
      <path d="M31.71,267.18c1.5.74,3,1.54,4.46,2.31l4.41,2.4c2.94,1.61,5.84,3.28,8.74,4.95s5.78,3.39,8.62,5.16l4.27,2.65c1.41.91,2.83,1.8,4.22,2.74-1.51-.74-3-1.54-4.47-2.31l-4.41-2.41c-2.94-1.6-5.84-3.28-8.74-4.95s-5.77-3.39-8.62-5.16l-4.27-2.64C34.52,269,33.1,268.12,31.71,267.18Z" style="fill: rgb(235, 235, 235); transform-origin: 49.07px 277.285px;" id="elplvar3ssjne" class="animable"></path>
    </g>
  </g>
  <defs>
    <filter id="active" height="200%">
      <feMorphology in="SourceAlpha" result="DILATED" operator="dilate" radius="2"></feMorphology>
      <feFlood flood-color="#32DFEC" flood-opacity="1" result="PINK"></feFlood>
      <feComposite in="PINK" in2="DILATED" operator="in" result="OUTLINE"></feComposite>
      <feMerge>
        <feMergeNode in="OUTLINE"></feMergeNode>
        <feMergeNode in="SourceGraphic"></feMergeNode>
      </feMerge>
    </filter>
    <filter id="hover" height="200%">
      <feMorphology in="SourceAlpha" result="DILATED" operator="dilate" radius="2"></feMorphology>
      <feFlood flood-color="#ff0000" flood-opacity="0.5" result="PINK"></feFlood>
      <feComposite in="PINK" in2="DILATED" operator="in" result="OUTLINE"></feComposite>
      <feMerge>
        <feMergeNode in="OUTLINE"></feMergeNode>
        <feMergeNode in="SourceGraphic"></feMergeNode>
      </feMerge>
      <feColorMatrix type="matrix" values="0   0   0   0   0                0   1   0   0   0                0   0   0   0   0                0   0   0   1   0 "></feColorMatrix>
    </filter>
  </defs>
</svg>